<svg xmlns="http://www.w3.org/2000/svg" viewBox="0 0 1200 400"><defs><style>.cls-1,.cls-9{fill:none;stroke-miterlimit:10;stroke-width:4px;}.cls-1{stroke:#000;opacity:0.2;}.cls-2{font-size:174.1px;font-family:MuktaVaani-Regular, Mukta Vaani;}.cls-3{letter-spacing:-0.02em;}.cls-4{letter-spacing:-0.02em;}.cls-5{letter-spacing:-0.02em;}.cls-6{letter-spacing:0em;}.cls-7{opacity:0.7;}.cls-8{fill:#005b72;}.cls-9{stroke:#005b72;}.cls-10{font-size:60px;fill:#fff;font-family:OpenSans, Open Sans;}</style></defs><title>font-characteristics</title><g id="lines"><line class="cls-1" y1="292" x2="1200" y2="292"/><line class="cls-1" x1="796" y1="180.05" x2="1088" y2="180.05"/><line class="cls-1" x1="88.5" y1="178.31" x2="402" y2="178.31"/></g><g id="font"><text class="cls-2" transform="translate(26.08 290)">Hambu<tspan class="cls-3" x="528.21" y="0">r</tspan><tspan class="cls-4" x="588.63" y="0">g</tspan><tspan x="679.33" y="0">e</tspan><tspan class="cls-5" x="767.08" y="0">f</tspan><tspan x="821.4" y="0">o</tspan><tspan class="cls-6" x="915.06" y="0">n</tspan><tspan x="1007.16" y="0">ts</tspan></text></g><g id="caption"><g class="cls-7"><circle class="cls-8" cx="699" cy="213" r="20"/><circle class="cls-8" cx="699" cy="72" r="40"/><line class="cls-9" x1="699" y1="212.5" x2="699" y2="71.5"/></g><text class="cls-10" transform="translate(681.85 94)">5</text><g class="cls-7"><circle class="cls-8" cx="1057" cy="183" r="20"/><circle class="cls-8" cx="1057" cy="72" r="40"/><line class="cls-9" x1="1057" y1="182.5" x2="1057" y2="71.5"/></g><text class="cls-10" transform="translate(1039.85 94)">7</text><g class="cls-7"><circle class="cls-8" cx="117" cy="176" r="20"/><circle class="cls-8" cx="117" cy="72" r="40"/><line class="cls-9" x1="117" y1="175.5" x2="117" y2="71.5"/></g><text class="cls-10" transform="translate(99.85 94)">1</text><g class="cls-7"><circle class="cls-8" cx="160" cy="218" r="20"/><circle class="cls-8" cx="243" cy="72" r="40"/><polyline class="cls-9" points="160 217.5 160 155 243 72"/><text class="cls-10" transform="translate(225.85 94)">2</text></g><g class="cls-7"><circle class="cls-8" cx="775" cy="282" r="20"/><circle class="cls-8" cx="858" cy="72" r="40"/><polyline class="cls-9" points="775 281.5 775 155 858 72"/><text class="cls-10" transform="translate(840.85 94)">6</text></g><g class="cls-7"><circle class="cls-8" cx="607.01" cy="72" r="40"/><line class="cls-9" x1="607.01" y1="214.5" x2="607.01" y2="71.5"/><text class="cls-10" transform="translate(589.86 94)">4</text><circle class="cls-8" cx="607.01" cy="215" r="20"/></g><g class="cls-7"><circle class="cls-8" cx="305" cy="218" r="20"/><circle class="cls-8" cx="388" cy="72" r="40"/><polyline class="cls-9" points="305 217.5 305 155 388 72"/><text class="cls-10" transform="translate(370.85 94)">3</text></g></g></svg>