<svg xmlns="http://www.w3.org/2000/svg" viewBox="0 0 1200 400"><defs><style>.cls-1,.cls-7{fill:none;stroke-miterlimit:10;stroke-width:4px;}.cls-1{stroke:#000;opacity:0.2;}.cls-2{font-size:155.5px;font-family:Roboto-Regular, Roboto;}.cls-3{letter-spacing:-0.01em;}.cls-4{letter-spacing:0em;}.cls-5{opacity:0.7;}.cls-6{fill:#005b72;}.cls-7{stroke:#005b72;}.cls-8{font-size:60px;fill:#fff;font-family:OpenSans, OpenSans;}</style></defs><title>font-characteristics</title><g id="lines"><line class="cls-1" y1="292" x2="1200" y2="292"/><line class="cls-1" x1="805" y1="185.5" x2="1090" y2="185.5"/><line class="cls-1" x1="94" y1="177" x2="406" y2="177"/></g><g id="font"><text class="cls-2" transform="translate(24.83 290)">Hambu<tspan class="cls-3" x="504.69" y="0">r</tspan><tspan class="cls-4" x="555.87" y="0">gefonts</tspan></text></g><g id="caption"><g class="cls-5"><circle class="cls-6" cx="160" cy="218" r="20"/><circle class="cls-6" cx="226" cy="72" r="40"/><polyline class="cls-7" points="160 217.5 160 138 226 72"/></g><text class="cls-8" transform="translate(210.61 94)">2</text><g class="cls-5"><circle class="cls-6" cx="382" cy="83" r="40"/><circle class="cls-6" cx="382" cy="217" r="20"/><line class="cls-7" x1="382" y1="216" x2="382" y2="82.5"/></g><text class="cls-8" transform="translate(366.61 105)">3</text><g class="cls-5"><circle class="cls-6" cx="580" cy="211" r="20"/><circle class="cls-6" cx="580" cy="72" r="40"/><line class="cls-7" x1="580" y1="210.5" x2="580" y2="71.5"/></g><text class="cls-8" transform="translate(564.61 94)">4</text><g class="cls-5"><circle class="cls-6" cx="742" cy="270" r="20"/><circle class="cls-6" cx="742" cy="61" r="40"/><line class="cls-7" x1="742" y1="269.5" x2="742" y2="60.5"/></g><text class="cls-8" transform="translate(726.61 83)">5</text><g class="cls-5"><circle class="cls-6" cx="1098" cy="230" r="20"/><circle class="cls-6" cx="1098" cy="116" r="40"/><line class="cls-7" x1="1098" y1="229.5" x2="1098" y2="115.5"/></g><text class="cls-8" transform="translate(1082.61 138)">6</text><g class="cls-5"><circle class="cls-6" cx="117" cy="170" r="20"/><circle class="cls-6" cx="117" cy="72" r="40"/><line class="cls-7" x1="117" y1="169.5" x2="117" y2="71.5"/></g><text class="cls-8" transform="translate(101.61 94)">1</text></g></svg>