<svg id="Ebene_1" data-name="Ebene 1" xmlns="http://www.w3.org/2000/svg" xmlns:xlink="http://www.w3.org/1999/xlink" viewBox="0 0 1200 400"><defs><style>.cls-1,.cls-12,.cls-5{fill:none;}.cls-2{clip-path:url(#clip-path);}.cls-3{opacity:0.2;}.cls-4{clip-path:url(#clip-path-3);}.cls-5{stroke:#000;}.cls-12,.cls-5{stroke-miterlimit:10;stroke-width:4px;}.cls-6{clip-path:url(#clip-path-5);}.cls-7{clip-path:url(#clip-path-6);}.cls-8{clip-path:url(#clip-path-7);}.cls-9{clip-path:url(#clip-path-8);}.cls-10{opacity:0.7;}.cls-11{fill:#005b72;}.cls-12{stroke:#005b72;}.cls-13{fill:#fff;}.cls-14{clip-path:url(#clip-path-11);}.cls-15{clip-path:url(#clip-path-14);}.cls-16{clip-path:url(#clip-path-18);}</style><clipPath id="clip-path"><rect class="cls-1" width="1200" height="400"/></clipPath><clipPath id="clip-path-3"><rect class="cls-1" y="290" width="1200" height="4"/></clipPath><clipPath id="clip-path-5"><rect class="cls-1" x="889.14" y="179.06" width="203.33" height="4"/></clipPath><clipPath id="clip-path-6"><rect class="cls-1" x="889.14" y="179.06" width="203.33" height="4"/></clipPath><clipPath id="clip-path-7"><rect class="cls-1" x="94" y="176.62" width="787.08" height="4"/></clipPath><clipPath id="clip-path-8"><rect class="cls-1" x="94" y="176.61" width="787.08" height="4"/></clipPath><clipPath id="clip-path-11"><rect class="cls-1" x="350.85" y="-14.48" width="80" height="248.96"/></clipPath><clipPath id="clip-path-14"><rect class="cls-1" x="605" y="32" width="101" height="283.11"/></clipPath><clipPath id="clip-path-18"><rect class="cls-1" x="1103" y="81" width="80" height="202"/></clipPath></defs><title>Zeichenfläche 1</title><g class="cls-2"><path d="M124.77,180.66V290H114.15V238.87H49.31V290H38.53V180.66H49.31v48.66h64.84V180.66Z"/><path d="M170.2,291.54a28.44,28.44,0,0,1-10.55-1.93,26.55,26.55,0,0,1-8.47-5.31,23.92,23.92,0,0,1-7.62-17.71,19.82,19.82,0,0,1,2.46-9.71,23.52,23.52,0,0,1,6.93-7.69,33.85,33.85,0,0,1,10.63-5,49,49,0,0,1,13.55-1.77,74,74,0,0,1,12.48,1.08,54,54,0,0,1,11.24,3.08v-7.24q0-10.62-6-16.86t-16.63-6.24a35.38,35.38,0,0,0-12.63,2.46,61.44,61.44,0,0,0-13.09,7.09l-3.69-6.93q15.54-10.47,30.18-10.47,15.09,0,23.72,8.46t8.62,23.41v36.19c0,2.88,1.28,4.31,3.85,4.31V290a26,26,0,0,1-4,.46,9,9,0,0,1-6.24-2,7.54,7.54,0,0,1-2.39-5.55l-.31-6.31a36.45,36.45,0,0,1-13.93,11.09A43,43,0,0,1,170.2,291.54Zm2.47-8a36.24,36.24,0,0,0,15-3.08,24.69,24.69,0,0,0,10.4-8.16,9.67,9.67,0,0,0,2.07-3,7.56,7.56,0,0,0,.7-3V253.19A64.69,64.69,0,0,0,190,250.11,60.67,60.67,0,0,0,178.52,249q-11.09,0-18,4.62t-6.93,12.17a16.72,16.72,0,0,0,1.46,6.93,17.6,17.6,0,0,0,4,5.62,18.66,18.66,0,0,0,6.08,3.77A20.42,20.42,0,0,0,172.67,283.53Z"/><path d="M353.31,290H342.84V245.18q0-14-4.47-20.64t-13.25-6.62a22.49,22.49,0,0,0-8.7,1.7,26.81,26.81,0,0,0-7.54,4.77,32.6,32.6,0,0,0-6.08,7.32,35.18,35.18,0,0,0-4,9.31v49H288.32V245.18q0-14.33-4.31-20.79t-13.25-6.47a23.63,23.63,0,0,0-16.17,6.32,35.14,35.14,0,0,0-10.16,16.63V290H234V209.76h9.55v18.17a37.87,37.87,0,0,1,12.93-14.4,32.09,32.09,0,0,1,17.71-5.15q10.17,0,16.25,5.69A24.88,24.88,0,0,1,297.87,229q11.24-20.64,30.95-20.63a24.46,24.46,0,0,1,11.47,2.46,19.35,19.35,0,0,1,7.55,7A33,33,0,0,1,352,228.78,71.42,71.42,0,0,1,353.31,243Z"/><path d="M414.75,291.54a33.28,33.28,0,0,1-17.48-4.78,35.07,35.07,0,0,1-12.39-12.32V290h-9.4V177.58H386v49a46.05,46.05,0,0,1,12.94-13.17,31,31,0,0,1,17.56-5,32,32,0,0,1,15.17,3.54A35.67,35.67,0,0,1,443,221.39a44.57,44.57,0,0,1,7.24,13.4,47.34,47.34,0,0,1,2.54,15.32,43.84,43.84,0,0,1-2.93,16,42.06,42.06,0,0,1-8,13.17,37.89,37.89,0,0,1-12.09,8.93A34.72,34.72,0,0,1,414.75,291.54Zm-2.46-9.25a27,27,0,0,0,12.09-2.69,29.65,29.65,0,0,0,9.39-7.24A34.88,34.88,0,0,0,439.93,262a32.75,32.75,0,0,0,2.23-11.93,36,36,0,0,0-2.08-12.17,33.63,33.63,0,0,0-5.85-10.39,28.33,28.33,0,0,0-9.08-7.24,25.29,25.29,0,0,0-11.63-2.69,24.37,24.37,0,0,0-8.93,1.61,30.2,30.2,0,0,0-7.7,4.39,35.74,35.74,0,0,0-6.32,6.39,41.64,41.64,0,0,0-4.62,7.62v24.95a17,17,0,0,0,3.32,7.78,27.76,27.76,0,0,0,6.46,6.24,34.09,34.09,0,0,0,8.16,4.15A25.3,25.3,0,0,0,412.29,282.29Z"/><path d="M495.6,291.54q-13.1,0-19.48-8.71t-6.39-25.95V209.76H480.2V255q0,27.25,18.63,27.25a27.64,27.64,0,0,0,9.09-1.54,28.42,28.42,0,0,0,8.24-4.46,36.55,36.55,0,0,0,6.78-6.93,35.23,35.23,0,0,0,4.85-9.09V209.76h10.47v66.68c0,2.88,1.23,4.31,3.69,4.31V290a19.52,19.52,0,0,1-3,.3h-1.62a8.35,8.35,0,0,1-6-2.61,9.33,9.33,0,0,1-2.31-6.63v-9.24a37.3,37.3,0,0,1-14.25,14.56A37.93,37.93,0,0,1,495.6,291.54Z"/><path d="M602,219a33,33,0,0,0-18.48,5.85,29.51,29.51,0,0,0-11.08,15.25V290H562V209.76h9.86V229a36.49,36.49,0,0,1,12-14.47A27.85,27.85,0,0,1,600,209.3a10.79,10.79,0,0,1,2,.15Z"/><path d="M648.21,291.07A33.15,33.15,0,0,1,633,287.61a39.12,39.12,0,0,1-11.85-9.16,42.05,42.05,0,0,1-7.78-13.09,43.09,43.09,0,0,1-2.77-15.25,47.64,47.64,0,0,1,2.69-15.94A41.06,41.06,0,0,1,621,220.85a37.14,37.14,0,0,1,11.78-9.09,33.82,33.82,0,0,1,15.17-3.38,31,31,0,0,1,17.86,5.15,49.62,49.62,0,0,1,12.94,13V209.76h9.39V290.3A32.72,32.72,0,0,1,684.94,305a31.54,31.54,0,0,1-8.47,10.7A36,36,0,0,1,664,322.18a52.29,52.29,0,0,1-15.17,2.16q-13.86,0-22.33-4.93a39.41,39.41,0,0,1-13.71-13.24l6.47-5.09a28.77,28.77,0,0,0,12.63,11.32A40,40,0,0,0,648.83,316a37.32,37.32,0,0,0,11.09-1.62,27.26,27.26,0,0,0,9.16-4.77,22.51,22.51,0,0,0,6.24-8,26,26,0,0,0,2.31-11.32V274.44A33.41,33.41,0,0,1,665,286.61,33.94,33.94,0,0,1,648.21,291.07Zm2.93-8.78a25.44,25.44,0,0,0,9.09-1.69,30.45,30.45,0,0,0,8.08-4.54,29.8,29.8,0,0,0,6.08-6.39,19.9,19.9,0,0,0,3.24-7.24v-24.8a31.26,31.26,0,0,0-4.62-8,32.15,32.15,0,0,0-6.62-6.32,33.39,33.39,0,0,0-7.94-4.15,24.74,24.74,0,0,0-8.54-1.54,25.27,25.27,0,0,0-12.09,2.84,29,29,0,0,0-9,7.47,33.18,33.18,0,0,0-5.62,10.48,37.51,37.51,0,0,0-1.93,11.85,33.21,33.21,0,0,0,2.31,12.32A32.12,32.12,0,0,0,630,272.82a30.52,30.52,0,0,0,9.48,6.93A27,27,0,0,0,651.14,282.29Z"/><path d="M745.85,291.54a38.51,38.51,0,0,1-16.09-3.32,39.26,39.26,0,0,1-12.71-9.08,42.21,42.21,0,0,1-8.39-13.32,43.37,43.37,0,0,1-3-16.17,42.36,42.36,0,0,1,3-15.94A41.26,41.26,0,0,1,717,220.62a39.55,39.55,0,0,1,12.71-8.93,39.06,39.06,0,0,1,44.66,9,42.34,42.34,0,0,1,11.09,28.79V252a6.22,6.22,0,0,1-.16,1.69H716.59a34,34,0,0,0,3,11.94,33,33,0,0,0,6.55,9.47,29,29,0,0,0,9.16,6.23,27.4,27.4,0,0,0,11,2.24,28.39,28.39,0,0,0,7.7-1.08,31.08,31.08,0,0,0,7.08-2.93A26.24,26.24,0,0,0,767,275a19.52,19.52,0,0,0,4-5.93l9.09,2.46a26.78,26.78,0,0,1-5.24,8.09,36.6,36.6,0,0,1-7.85,6.31,38.28,38.28,0,0,1-9.86,4.16A42.51,42.51,0,0,1,745.85,291.54Zm29.57-45.9A32.27,32.27,0,0,0,766,224.7a28.44,28.44,0,0,0-20.1-8.16,29,29,0,0,0-11.09,2.15,28.4,28.4,0,0,0-9.16,6,29.55,29.55,0,0,0-6.32,9.24,35,35,0,0,0-2.85,11.7Z"/><path d="M805.45,290V218.08H794.36v-8.32h11.09v-2.15q0-14.79,6.31-23.18T829,176a31.14,31.14,0,0,1,9.24,1.38,27.13,27.13,0,0,1,7.7,3.7l-3.24,7.54A15.7,15.7,0,0,0,837.4,186a22.86,22.86,0,0,0-6.39-.92q-7.39,0-11.24,5.7t-3.85,16.48v2.46h22.17v8.32H815.92V290Z"/><path d="M886.6,291.54a38.05,38.05,0,0,1-16-3.32,39.37,39.37,0,0,1-12.55-9A40.8,40.8,0,0,1,849.79,266a43.5,43.5,0,0,1-2.92-15.86,43,43,0,0,1,3-16,42,42,0,0,1,8.32-13.24,40.32,40.32,0,0,1,12.55-9.09,37,37,0,0,1,15.86-3.38,37.6,37.6,0,0,1,15.94,3.38,40.09,40.09,0,0,1,12.63,9.09,42,42,0,0,1,8.31,13.24,42.76,42.76,0,0,1,3,16A43.51,43.51,0,0,1,923.56,266a40.8,40.8,0,0,1-8.24,13.24,39,39,0,0,1-12.63,9A38.51,38.51,0,0,1,886.6,291.54Zm-29.1-41.28a33.47,33.47,0,0,0,2.31,12.55A34.09,34.09,0,0,0,866,273a28.27,28.27,0,0,0,9.24,6.85,26.63,26.63,0,0,0,11.32,2.46,25.8,25.8,0,0,0,11.32-2.54,30,30,0,0,0,9.32-6.93,32.82,32.82,0,0,0,6.31-10.24,35.46,35.46,0,0,0,0-25.18,32.71,32.71,0,0,0-6.31-10.31,30,30,0,0,0-9.32-6.93,25.8,25.8,0,0,0-11.32-2.54,25.33,25.33,0,0,0-11.24,2.54,29.84,29.84,0,0,0-9.24,7,33.84,33.84,0,0,0-6.31,10.4A34.68,34.68,0,0,0,857.5,250.26Z"/><path d="M1011.49,290H1001V245.18q0-14.33-4.23-20.79t-13-6.47a26.68,26.68,0,0,0-9.24,1.7,31.09,31.09,0,0,0-8.54,4.77,36.43,36.43,0,0,0-7,7.32,28.57,28.57,0,0,0-4.47,9.16V290H944V209.76h9.55v18.17a37.71,37.71,0,0,1,14.09-14.17,38.67,38.67,0,0,1,19.94-5.38,23.67,23.67,0,0,1,11.25,2.46,19.15,19.15,0,0,1,7.39,6.93,31.87,31.87,0,0,1,4,10.93,76.93,76.93,0,0,1,1.23,14.33Z"/><path d="M1072.32,286.15c-.61.3-1.51.71-2.69,1.23s-2.54,1-4.08,1.54a48.57,48.57,0,0,1-5.24,1.38,29.85,29.85,0,0,1-6.16.62,22.59,22.59,0,0,1-6.47-.92,15.23,15.23,0,0,1-5.39-2.85,14,14,0,0,1-3.69-4.86,15.51,15.51,0,0,1-1.39-6.77V218.08h-11.09v-8.32h11.09v-27.1h10.47v27.1h18.48v8.32h-18.48v54.51q.32,4.47,3.16,6.55a10.85,10.85,0,0,0,6.54,2.08,19.61,19.61,0,0,0,7.86-1.47,33.3,33.3,0,0,0,4.31-2.08Z"/><path d="M1112.05,291.54a55.88,55.88,0,0,1-18.32-3.08,44,44,0,0,1-15.4-8.94l4.77-7.08a52.18,52.18,0,0,0,13.78,8.31,40.42,40.42,0,0,0,15,2.78q9.7,0,15.48-3.93a12.7,12.7,0,0,0,5.77-11.16,9.68,9.68,0,0,0-1.54-5.63,13.46,13.46,0,0,0-4.54-3.92,35.77,35.77,0,0,0-7.55-3q-4.55-1.31-10.55-2.69-6.93-1.69-12-3.39a36.44,36.44,0,0,1-8.39-3.85,13.93,13.93,0,0,1-4.93-5.31,17.27,17.27,0,0,1-1.62-7.93,22.84,22.84,0,0,1,2.39-10.63,21.64,21.64,0,0,1,6.47-7.62,29.23,29.23,0,0,1,9.55-4.54,42.53,42.53,0,0,1,11.62-1.54,45.09,45.09,0,0,1,16.79,3,33.07,33.07,0,0,1,12.16,7.93l-5.08,6.16a28.25,28.25,0,0,0-10.85-6.93,39,39,0,0,0-13.33-2.31,32.85,32.85,0,0,0-7.7.85,18.39,18.39,0,0,0-6.23,2.69,13.28,13.28,0,0,0-4.24,4.7,13.84,13.84,0,0,0-1.54,6.7,11,11,0,0,0,1.08,5.23,9.23,9.23,0,0,0,3.54,3.47,29,29,0,0,0,6.24,2.62c2.51.77,5.57,1.56,9.16,2.38q7.7,1.86,13.55,3.7a42.48,42.48,0,0,1,9.78,4.31,16.93,16.93,0,0,1,5.93,6,17.2,17.2,0,0,1,2,8.62q0,11.08-8.47,17.56T1112.05,291.54Z"/><g class="cls-2"><g class="cls-3"><g class="cls-4"><g class="cls-4"><line class="cls-5" y1="292" x2="1200" y2="292"/></g></g></g><g class="cls-3"><g class="cls-6"><g class="cls-7"><line class="cls-5" x1="889.14" y1="181.06" x2="1092.47" y2="181.06"/></g></g></g><g class="cls-3"><g class="cls-8"><g class="cls-9"><line class="cls-5" x1="94" y1="178.61" x2="881.08" y2="178.61"/></g></g></g></g><g class="cls-2"><g class="cls-10"><path class="cls-11" d="M226,281a20,20,0,1,1-20-20,20,20,0,0,1,20,20"/><path class="cls-11" d="M411.85,220a20,20,0,1,1-20-20,20,20,0,0,1,20,20"/><path class="cls-11" d="M266,72a40,40,0,1,1-40-40,40,40,0,0,1,40,40"/><polyline class="cls-12" points="206 276 206 138 226 72"/><rect class="cls-1" x="140" y="-7991" width="281.85" height="16383"/></g></g><path class="cls-13" d="M239.93,94H211.78V89.81l11.28-11.34A81.59,81.59,0,0,0,229.85,71a18.51,18.51,0,0,0,2.46-4.33,12.38,12.38,0,0,0,.82-4.55,7.19,7.19,0,0,0-2.08-5.43,8,8,0,0,0-5.77-2,14.61,14.61,0,0,0-5.05.88,20.1,20.1,0,0,0-5.32,3.2l-2.58-3.32a19.77,19.77,0,0,1,12.89-4.92q6,0,9.47,3.09A10.65,10.65,0,0,1,238.11,62,16.1,16.1,0,0,1,235.83,70q-2.28,4-8.56,10.07l-9.37,9.17v.24h22Z"/><g class="cls-2"><g class="cls-10"><g class="cls-14"><g class="cls-14"><path class="cls-11" d="M430.85,92.67a40,40,0,1,1-40-40,40,40,0,0,1,40,40"/><line class="cls-12" x1="390.85" y1="201.02" x2="390.85" y2="122.75"/></g></g></g></g><path class="cls-13" d="M404.5,82.92a9.8,9.8,0,0,1-2.3,6.71,11.5,11.5,0,0,1-6.52,3.48v.24q5.16.65,7.65,3.28a9.7,9.7,0,0,1,2.49,6.91q0,6.13-4.25,9.42t-12.07,3.3a35.22,35.22,0,0,1-6.23-.51,21.57,21.57,0,0,1-5.49-1.81v-4.62a28.17,28.17,0,0,0,11.89,2.81q11.1,0,11.11-8.7,0-7.8-12.25-7.8h-4.22V91.44h4.28a12.84,12.84,0,0,0,7.94-2.21,7.26,7.26,0,0,0,2.93-6.14,6,6,0,0,0-2.16-4.92,8.86,8.86,0,0,0-5.84-1.78,17.92,17.92,0,0,0-5.3.76A23.74,23.74,0,0,0,380.47,80L378,76.68a20.52,20.52,0,0,1,6.08-3.27,22.13,22.13,0,0,1,7.25-1.18q6.24,0,9.7,2.85A9.65,9.65,0,0,1,404.5,82.92Z"/><g class="cls-2"><g class="cls-10"><g class="cls-15"><path class="cls-11" d="M666,295.11a20,20,0,1,1-20-20,20,20,0,0,1,20,20"/><path class="cls-11" d="M685,116.67a40,40,0,1,1-40-40,40,40,0,0,1,40,40"/><line class="cls-12" x1="645" y1="283.38" x2="645" y2="153.48"/></g></g></g><path class="cls-13" d="M659.11,128.08h-6.36v9.84h-4.66v-9.84H627.26v-4.25l20.33-29h5.16v28.8h6.36Zm-11-4.42V109.42c0-2.79.1-6,.29-9.46h-.23a44.74,44.74,0,0,1-2.64,4.65l-13.39,19Z"/><g class="cls-2"><g class="cls-10"><path class="cls-11" d="M787,250.38a41.63,41.63,0,1,1-41.63-41.63A41.63,41.63,0,0,1,787,250.38"/><path class="cls-11" d="M785.4,56.39a40,40,0,1,1-40-40,40,40,0,0,1,40,40"/><line class="cls-12" x1="745.46" y1="254.61" x2="745.46" y2="45.61"/><rect class="cls-1" x="698.92" y="16.39" width="93.08" height="274.61"/></g></g><path class="cls-13" d="M745,54.84q6.76,0,10.65,3.35a11.54,11.54,0,0,1,3.88,9.19q0,6.65-4.24,10.43t-11.67,3.78q-7.25,0-11-2.32V74.58a16.87,16.87,0,0,0,5.1,2.07,25,25,0,0,0,6,.75c3.43,0,6.11-.81,8-2.44a8.73,8.73,0,0,0,2.86-7q0-9-11-9a43.26,43.26,0,0,0-7.44.85l-2.52-1.61,1.61-20h21.3v4.48H739.39l-1.08,12.86A34,34,0,0,1,745,54.84Z"/><g class="cls-2"><g class="cls-10"><path class="cls-11" d="M1065.51,175.42a20,20,0,1,1-20-20,20,20,0,0,1,20,20"/><path class="cls-11" d="M1080.17,204.76a20,20,0,1,1-20-20,20,20,0,0,1,20,20"/><path class="cls-11" d="M1085.51,81.5a40,40,0,1,1-40-40,40,40,0,0,1,40,40"/><line class="cls-12" x1="1045.51" y1="188.5" x2="1045.51" y2="74.5"/><rect class="cls-1" x="1005.51" y="41.5" width="80" height="202"/></g></g><path class="cls-13" d="M1030.34,83.35q0-12.63,4.91-18.89t14.51-6.25a19.39,19.39,0,0,1,5.22.56V63a16.6,16.6,0,0,0-5.16-.74q-6.88,0-10.51,4.3c-2.43,2.86-3.75,7.35-4,13.49h.35q3.22-5,10.2-5,5.78,0,9.09,3.48t3.33,9.47q0,6.67-3.65,10.5t-9.86,3.82a12.65,12.65,0,0,1-10.54-5Q1030.34,92.26,1030.34,83.35Zm14.39,14.76a8.14,8.14,0,0,0,6.46-2.62q2.3-2.62,2.3-7.57a9.8,9.8,0,0,0-2.14-6.68q-2.14-2.43-6.39-2.43a10.77,10.77,0,0,0-4.83,1.08,8.92,8.92,0,0,0-3.51,3,7,7,0,0,0-1.3,4,13.62,13.62,0,0,0,1.17,5.63,9.89,9.89,0,0,0,3.33,4.13A8.31,8.31,0,0,0,1044.73,98.11Z"/><g class="cls-2"><g class="cls-10"><path class="cls-11" d="M137,180a20,20,0,1,1-20-20,20,20,0,0,1,20,20"/><path class="cls-11" d="M157,48.46a40,40,0,1,1-40-40,40,40,0,0,1,40,40"/><line class="cls-12" x1="117" y1="166" x2="117" y2="23.66"/><rect class="cls-1" x="77" y="-15.84" width="80" height="158"/><rect class="cls-1" x="77" y="-15.84" width="80" height="158"/></g></g><path class="cls-13" d="M120.79,71.57h-4.74V41c0-2.54.07-4.94.23-7.2-.41.41-.87.84-1.37,1.28s-2.84,2.36-7,5.72l-2.58-3.34,11.34-8.76h4.1Z"/><g class="cls-10"><g class="cls-16"><path class="cls-11" d="M1163,214.93a20,20,0,1,1-20-20,20,20,0,0,1,20,20"/><path class="cls-11" d="M1183,121a40,40,0,1,1-40-40,40,40,0,0,1,40,40"/><line class="cls-12" x1="1143" y1="228" x2="1143" y2="114"/></g></g><path class="cls-13" d="M1135.26,142.16,1153,103.81h-23.35V99.33h28.5v3.89l-17.52,38.94Z"/></g></svg>