<svg xmlns="http://www.w3.org/2000/svg" viewBox="0 0 1200 400"><defs><style>.cls-1,.cls-4,.cls-6,.cls-7{fill:none;stroke-miterlimit:10;}.cls-1{stroke:#000;opacity:0.2;}.cls-1,.cls-4{stroke-width:4px;}.cls-2{opacity:0.7;}.cls-3{fill:#005b72;}.cls-4,.cls-6,.cls-7{stroke:#005b72;}.cls-5{fill:#fff;}.cls-6,.cls-7{stroke-width:3px;}.cls-7{stroke-dasharray:4.03 3.03;}</style></defs><title>font-characteristics</title><g id="lines"><line class="cls-1" y1="292" x2="1200" y2="292"/><line class="cls-1" x1="25" y1="209" x2="554" y2="209"/><line class="cls-1" x1="25" y1="184.5" x2="554" y2="184.5"/></g><g id="font"><path d="M73.58,281v9H30.83v-9l12.75-3V197l-12.75-3v-8.25L73.58,185v9l-14.25,3v33h50.25V197l-14.25-3v-8.25l42.75-.75v9l-12.75,3v81l12.75,3v9H95.33v-9l14.25-3V242H59.33v36Z"/><path d="M155.33,215q16.2-6,29.7-6,13.2,0,20.25,5.32t7.05,17.93V278l12,3v8.25l-23.25.75-3.15-10.5q-12,12-23.7,12t-17.55-5.86q-5.85-5.83-5.85-16.64,0-23.25,34.5-23.25h12v-12q0-13.5-14.25-13.5a45.72,45.72,0,0,0-13.35,1.64l-1.8.61-2.1,11.25h-9.75Zm42,40.5h-10.5q-11.25,0-16,2.92t-4.72,9.08c0,3.89.92,6.87,2.77,8.92s4.53,3.08,8,3.08a15.86,15.86,0,0,0,5.17-.9,33,33,0,0,0,5.1-2.25,29.59,29.59,0,0,0,4.43-2.93,27.48,27.48,0,0,0,3.15-2.92l2.55-3Z"/><path d="M259.58,210.5l1.35,10.64A53.85,53.85,0,0,1,266,217a48,48,0,0,1,6.59-4,44.36,44.36,0,0,1,7.58-2.92,28.79,28.79,0,0,1,7.88-1.12q15.14,0,20.85,12.89a38.59,38.59,0,0,1,6.3-5,62.65,62.65,0,0,1,7.42-4.12,43.55,43.55,0,0,1,7.5-2.78,26.2,26.2,0,0,1,6.68-1q23.24,0,23.25,27v42l11.25,3.75V290h-36v-8.25l9.75-3.75V237.5c0-5.5-1-9.5-2.85-12s-5-3.75-9.3-3.75a22.31,22.31,0,0,0-6.08.82,27.5,27.5,0,0,0-5.47,2.18,26.47,26.47,0,0,0-4.5,2.92,19.7,19.7,0,0,0-3.15,3.08l-2.4,3V278l9.75,3.75V290h-34.5v-8.25l9.75-3.75V237.5c0-5.5-1-9.5-2.85-12s-5-3.75-9.3-3.75a22.31,22.31,0,0,0-6.08.82,27.84,27.84,0,0,0-5.48,2.18,27.29,27.29,0,0,0-4.5,2.92,20,20,0,0,0-3.14,3.08l-2.4,3V278l9.75,3.75V290h-37.5v-8.25L247.58,278V222.5l-12.75-3v-8.25Z"/><path d="M402.82,174.5v43.2q10.95-8.7,22.5-8.7,15.9,0,23.7,10.35t7.8,29.4a52.61,52.61,0,0,1-2.7,17.17,37.92,37.92,0,0,1-7.95,13.58,35.78,35.78,0,0,1-12.9,8.85,46.21,46.21,0,0,1-17.7,3.15q-7.65-.17-13.72-.68a48.18,48.18,0,0,1-10.73-2l-3.3-1V186.5l-12-3v-8.25Zm0,103.5q3.6,1.5,15.6,1.5a21.82,21.82,0,0,0,10.28-2.25,19.65,19.65,0,0,0,7.05-6.23,27,27,0,0,0,4.05-9.45,52.54,52.54,0,0,0,1.27-11.93q0-13.5-4.57-21.07T422.32,221q-7.5,0-12.07,2.92a27.23,27.23,0,0,0-7.43,6.83Z"/><path d="M544.57,210.5V278l12.75,3v8.25l-24.75.75-1.5-10.5a49.56,49.56,0,0,1-14.25,8.77q-8,3.23-13.5,3.23-12,0-18-7.05t-6-19.81V222.5l-12.75-3v-8.25l27.75-.75v52.64q0,8,3.15,11.78t9.6,3.83a24,24,0,0,0,11.85-3,30.58,30.58,0,0,0,8-5.86l2.7-3V222.5l-12.75-3v-8.25Z"/><path d="M591.82,210.5l1.35,10.95Q604.27,209,615.82,209a39.42,39.42,0,0,1,11.85,1.79l1.65.46L628.57,233h-9.75l-2.25-11.25q-12.9,0-21.75,11.7V278l15,3.75V290H567.07v-8.25L579.82,278V222.5l-12.75-3v-8.25Z"/><path d="M671.32,266a40.73,40.73,0,0,1-11.25-1.36l-.75,14.11h23.25q14.7,0,22.35,5.54t7.65,16.8a22.53,22.53,0,0,1-9.9,19.28q-9.9,7.13-29.1,7.13-36,0-36-21.75,0-9.45,10-16.05a30.29,30.29,0,0,1,5.7-2.7,12.06,12.06,0,0,1-6.52-2.86,6.74,6.74,0,0,1-2.48-5.1q0-4.94,5.85-14.4l2-3.14a11.6,11.6,0,0,1-3.67-2.71,27.32,27.32,0,0,1-3.83-4.5q-4.05-6.28-4-16,0-14.25,8.93-21.75t24.07-7.5q8.4,0,13.35,2.1l1.65.75,26.25-.6v8.25l-14.55,2.1q4.05,5.4,4.05,15.15,0,14.7-8.85,22T671.32,266Zm7.5,24h-16.5a17.13,17.13,0,0,0-2.92,1.87,21.2,21.2,0,0,0-3.38,2.92,12.82,12.82,0,0,0-3.45,8.71c0,4.89,1.93,8.25,5.78,10s9.67,2.71,17.47,2.71q22.5,0,22.5-14.25,0-6.92-4.87-9.46T678.82,290Zm-6-70.5q-17.25,0-17.25,18,0,8.25,4.2,13.12t12.15,4.88q9.15,0,13.28-4.28t4.12-13.72Q689.32,219.5,672.82,219.5Z"/><path d="M792.07,252.2l-51.75.3q0,12.3,5.93,19.64a19.25,19.25,0,0,0,15.82,7.36,36,36,0,0,0,6.6-.61,50.27,50.27,0,0,0,6.23-1.5,40.81,40.81,0,0,0,5.32-2,36.46,36.46,0,0,0,4-2.17l3-1.95,5.25,7.79a65.74,65.74,0,0,1-9.37,6.38,60.35,60.35,0,0,1-10,4.2,40.42,40.42,0,0,1-12.53,1.88q-17.7,0-26.85-10.73t-9.15-29.32a52,52,0,0,1,2.7-17.1,40.3,40.3,0,0,1,7.58-13.43A34.17,34.17,0,0,1,761.32,209q31.5,0,31.5,35.25Zm-51.15-10.95h36q0-9.15-3.9-14.86t-12.6-5.69q-8.55,0-13.65,5.77T740.92,241.25Z"/><path d="M808.57,212.75l13.5-1.5v-9q0-13.65,7.2-21.46T849.82,173a53.88,53.88,0,0,1,11.93,1.27,32.17,32.17,0,0,1,8,2.63l2.55,1.35V197h-10.5l-2.25-12a54.49,54.49,0,0,0-10.2-.75q-12.3,0-12.3,15v12h19.8l-.45,11.25H837.07V278l14.55,3.75V290h-42.3v-8.25L822.07,278V222.5h-13.5Z"/><path d="M870.07,251.45A52.33,52.33,0,0,1,872.84,234a38.56,38.56,0,0,1,7.88-13.43A35.07,35.07,0,0,1,892.79,212a38.54,38.54,0,0,1,15.38-3q16.8,0,26.1,10.64t9.3,29.56a51.28,51.28,0,0,1-2.7,17,40.58,40.58,0,0,1-7.58,13.35,34,34,0,0,1-11.85,8.78,37.27,37.27,0,0,1-15.52,3.15q-17.1,0-26.48-10.21T870.07,251.45ZM907.57,221q-21.75,0-21.75,29.25t21,29.25q10.95,0,16-7.5t5-22.5Q927.82,221,907.57,221Z"/><path d="M980.32,210.5l1.35,10.64,4.2-3.29a44.7,44.7,0,0,1,6.37-4.06,50.76,50.76,0,0,1,8.1-3.37,29.94,29.94,0,0,1,9.23-1.42q12.15,0,18.07,7.12t5.93,19.88v42l11.25,3.75V290h-36v-8.25l9.75-3.75V237.5q0-8.1-3.15-11.93t-9.6-3.82a24,24,0,0,0-6.23.82,29.71,29.71,0,0,0-10.35,5.1,26,26,0,0,0-3.37,3.08l-2.55,3V278l9.75,3.75V290h-37.5v-8.25L968.32,278V222.5l-12.75-3v-8.25Z"/><path d="M1082.32,189.35v21.9h21.75V222.5h-21.75v48.14c0,6.11,2.49,9.15,7.5,9.15,3.2,0,7.1-1.24,11.7-3.75l4,8q-10.21,7.5-21,7.5a16.45,16.45,0,0,1-12.45-5q-4.8-5-4.8-16.72V222.5h-15v-9.75l15-1.5v-18.9Z"/><path d="M1115.46,266H1126l1.65,12.89a19.45,19.45,0,0,0,4.73,1,55.09,55.09,0,0,0,6.37.38q9.75,0,14.18-2.93t4.42-8.93a7.75,7.75,0,0,0-3.07-6.44,27.63,27.63,0,0,0-7.73-4.06q-4.65-1.63-10.12-3.29a49.73,49.73,0,0,1-10.13-4.28,24.14,24.14,0,0,1-7.72-6.82q-3.07-4.2-3.08-11.11,0-11.25,7.5-17.17t20-6.22q5.25.15,10.73.82a63.31,63.31,0,0,1,11.17,2.47l3.75,1.21-.45,20.25h-9.75L1156,222a36.86,36.86,0,0,0-4.65-1.12,38.26,38.26,0,0,0-7.35-.67,26.82,26.82,0,0,0-5.1.45,13.92,13.92,0,0,0-4.27,1.5,7.86,7.86,0,0,0-3,3,9.47,9.47,0,0,0-1.13,4.8,8.27,8.27,0,0,0,3.08,6.82,29.12,29.12,0,0,0,7.72,4.28c3.1,1.19,6.48,2.35,10.13,3.44a50.21,50.21,0,0,1,10.12,4.28,24.89,24.89,0,0,1,7.73,6.68q3.08,4,3.07,10.64a22.27,22.27,0,0,1-2.7,11.11,24.25,24.25,0,0,1-7.27,8,32.41,32.41,0,0,1-10.65,4.8,51.59,51.59,0,0,1-13,1.57c-1.7,0-3.47-.07-5.32-.22s-3.68-.35-5.48-.6-3.47-.53-5-.82-2.83-.61-3.83-.9l-3.45-.9Z"/></g><g id="caption"><g class="cls-2"><circle class="cls-3" cx="227" cy="284" r="20"/><circle class="cls-3" cx="293" cy="72" r="40"/><polyline class="cls-4" points="227 267 227 160.45 293 72"/><path class="cls-5" d="M306.93,94H278.78V89.81l11.28-11.34A81.59,81.59,0,0,0,296.85,71a18.51,18.51,0,0,0,2.46-4.33,12.38,12.38,0,0,0,.82-4.55,7.19,7.19,0,0,0-2.08-5.43,8,8,0,0,0-5.77-2,14.61,14.61,0,0,0-5,.88,20.1,20.1,0,0,0-5.32,3.2l-2.58-3.32a19.77,19.77,0,0,1,12.89-4.92q6,0,9.47,3.09A10.65,10.65,0,0,1,305.11,62,16.1,16.1,0,0,1,302.83,70q-2.28,4-8.56,10.07l-9.37,9.17v.24h22Z"/></g><g class="cls-2"><circle class="cls-3" cx="486" cy="72" r="40"/><line class="cls-4" x1="486" y1="207" x2="486" y2="103"/><path class="cls-5" d="M498.32,61.25A9.8,9.8,0,0,1,496,68a11.52,11.52,0,0,1-6.52,3.48v.24q5.16.64,7.65,3.28a9.64,9.64,0,0,1,2.49,6.91q0,6.12-4.25,9.42t-12.07,3.3a34.26,34.26,0,0,1-6.23-.52,21.28,21.28,0,0,1-5.49-1.8V87.64a28,28,0,0,0,11.9,2.82q11.1,0,11.1-8.71,0-7.78-12.25-7.79h-4.22V69.77h4.28a12.9,12.9,0,0,0,7.94-2.21,7.27,7.27,0,0,0,2.93-6.14,6.06,6.06,0,0,0-2.15-4.92,8.91,8.91,0,0,0-5.85-1.79,18.3,18.3,0,0,0-5.3.76,23.59,23.59,0,0,0-5.68,2.82L471.83,55a20.52,20.52,0,0,1,6.08-3.27,22.19,22.19,0,0,1,7.26-1.19q6.24,0,9.69,2.86A9.61,9.61,0,0,1,498.32,61.25Z"/></g><g class="cls-2"><circle class="cls-3" cx="650.5" cy="278" r="20"/><circle class="cls-3" cx="650.5" cy="72" r="40"/><line class="cls-4" x1="650.5" y1="267" x2="650.5" y2="71.5"/></g><path class="cls-5" d="M666.45,84.16h-6.36V94h-4.65V84.16H634.61V79.91l20.33-29h5.15v28.8h6.36Zm-11-4.43V65.49c0-2.79.09-5.94.29-9.46h-.23a44,44,0,0,1-2.64,4.66l-13.39,19Z"/><g class="cls-2"><circle class="cls-3" cx="785" cy="281" r="20"/><circle class="cls-3" cx="785" cy="72" r="40"/><line class="cls-4" x1="785" y1="280.5" x2="785" y2="71.5"/></g><path class="cls-5" d="M784.17,67.84q6.76,0,10.64,3.35a11.52,11.52,0,0,1,3.89,9.19q0,6.65-4.24,10.43t-11.67,3.78q-7.24,0-11-2.32V87.58a16.87,16.87,0,0,0,5.1,2.07,25,25,0,0,0,6,.75c3.43,0,6.11-.81,8-2.44a8.73,8.73,0,0,0,2.86-7q0-9-11-9a43.26,43.26,0,0,0-7.44.85l-2.52-1.61,1.61-20h21.3v4.48H778.54l-1.08,12.86A34,34,0,0,1,784.17,67.84Z"/><g class="cls-2"><circle class="cls-3" cx="117" cy="238" r="20"/><circle class="cls-3" cx="117" cy="72" r="40"/><line class="cls-4" x1="117" y1="225" x2="117" y2="71.5"/></g><path class="cls-5" d="M120.79,94h-4.74V63.47q0-3.81.23-7.2c-.41.41-.87.84-1.37,1.28s-2.84,2.36-7,5.72l-2.58-3.34,11.34-8.76h4.1Z"/><g class="cls-2"><circle class="cls-3" cx="906" cy="72" r="40"/><line class="cls-4" x1="904" y1="222" x2="906" y2="71.5"/><path class="cls-5" d="M892.27,75.69q0-12.63,4.91-18.88t14.52-6.26a19.31,19.31,0,0,1,5.21.56V55.3a16.59,16.59,0,0,0-5.15-.73q-6.88,0-10.52,4.29t-4,13.49h.36q3.21-5,10.19-5,5.78,0,9.1,3.49t3.32,9.46q0,6.67-3.64,10.5a13,13,0,0,1-9.86,3.83,12.67,12.67,0,0,1-10.55-5Q892.27,84.6,892.27,75.69Zm14.39,14.77a8.14,8.14,0,0,0,6.46-2.63q2.29-2.62,2.3-7.57a9.75,9.75,0,0,0-2.14-6.68q-2.14-2.43-6.39-2.43a10.8,10.8,0,0,0-4.83,1.08,9,9,0,0,0-3.5,3,6.92,6.92,0,0,0-1.31,4,13.58,13.58,0,0,0,1.18,5.62,9.89,9.89,0,0,0,3.32,4.13A8.27,8.27,0,0,0,906.66,90.46Z"/><line class="cls-6" x1="916" y1="313" x2="915.75" y2="311.02"/><line class="cls-7" x1="915.36" y1="308.02" x2="899.45" y2="183.48"/><line class="cls-6" x1="899.25" y1="181.98" x2="899" y2="180"/></g></g></svg>