<svg xmlns="http://www.w3.org/2000/svg" xmlns:xlink="http://www.w3.org/1999/xlink" viewBox="0 0 1200 400"><defs><style>.cls-1,.cls-12,.cls-5{fill:none;}.cls-2{clip-path:url(#clip-path);}.cls-3{opacity:0.2;}.cls-4{clip-path:url(#clip-path-3);}.cls-5{stroke:#000;}.cls-12,.cls-5{stroke-miterlimit:10;stroke-width:4px;}.cls-6{clip-path:url(#clip-path-4);}.cls-7{clip-path:url(#clip-path-5);}.cls-8{clip-path:url(#clip-path-6);}.cls-9{opacity:0.7;}.cls-10{clip-path:url(#clip-path-7);}.cls-11{fill:#005b72;}.cls-12{stroke:#005b72;}.cls-13{fill:#fff;}.cls-14{clip-path:url(#clip-path-8);}.cls-15{clip-path:url(#clip-path-9);}.cls-16{clip-path:url(#clip-path-10);}.cls-17{clip-path:url(#clip-path-11);}.cls-18{clip-path:url(#clip-path-12);}.cls-19{clip-path:url(#clip-path-13);}.cls-20{clip-path:url(#clip-path-14);}.cls-21{clip-path:url(#clip-path-15);}.cls-22{clip-path:url(#clip-path-16);}.cls-23{clip-path:url(#clip-path-17);}</style><clipPath id="clip-path"><rect class="cls-1" width="1200" height="400"/></clipPath><clipPath id="clip-path-3"><rect class="cls-1" y="290" width="1200" height="4"/></clipPath><clipPath id="clip-path-4"><rect class="cls-1" x="805" y="176.5" width="285" height="4"/></clipPath><clipPath id="clip-path-5"><rect class="cls-1" x="94" y="168" width="312" height="4"/></clipPath><clipPath id="clip-path-6"><rect class="cls-1" x="99" y="-3" width="1200" height="400"/></clipPath><clipPath id="clip-path-7"><rect class="cls-1" x="239" y="-7994" width="126" height="16383"/></clipPath><clipPath id="clip-path-8"><rect class="cls-1" x="-8.98" width="1200" height="400"/></clipPath><clipPath id="clip-path-9"><rect class="cls-1" x="370.1" y="32" width="80" height="252.42"/></clipPath><clipPath id="clip-path-10"><rect class="cls-1" x="77.14" y="43.18" width="1200" height="400"/></clipPath><clipPath id="clip-path-11"><rect class="cls-1" x="703.14" y="75.18" width="80" height="199"/></clipPath><clipPath id="clip-path-12"><rect class="cls-1" x="-152.6" width="1200" height="400"/></clipPath><clipPath id="clip-path-13"><rect class="cls-1" x="592.4" y="32" width="80" height="269"/></clipPath><clipPath id="clip-path-14"><rect class="cls-1" x="19.29" y="25.67" width="1200" height="400"/></clipPath><clipPath id="clip-path-15"><rect class="cls-1" x="1045.29" y="57.67" width="80" height="174"/></clipPath><clipPath id="clip-path-16"><rect class="cls-1" x="90" y="35" width="1200" height="400"/></clipPath><clipPath id="clip-path-17"><rect class="cls-1" x="167" y="67" width="80" height="158"/></clipPath></defs><title>Zeichenfläche 1</title><g id="Ebene_2" data-name="Ebene 2"><path d="M153.69,168.7V290h-11.2V233.08h-54V290H77.33V168.7h11.2v54.43h54V168.7Z"/><path d="M225.06,278.49c-5.44,7.15-14.77,13.22-29.08,13.22-15.08,0-23.79-9.33-23.79-22.55V267.6c0-17.88,13.53-23,26.9-25L224,238.68V236.5c0-14.15-4.51-21.46-19.13-21.46-15.55,0-19.13,9-19.13,19.75H175.3v-1.4c0-12.44,5.44-27.52,29.7-27.52,22.86,0,29.86,12.44,29.86,30.63v30.17l.93,23.33h-9ZM224,269.16V246.61L200,250.5c-10.57,1.87-16.95,7-16.95,16.33v1.4c0,7.31,4.67,14,15.71,14C214,282.22,221,274,224,269.16Z"/><path d="M349.61,290V231.84c0-12.6-6.53-16.17-15.86-16.17-11.51,0-17.1,7.15-20.53,12.44V290H302.34V231.84c0-12.6-6.53-16.17-15.86-16.17-11.51,0-17.11,7.15-20.53,12.44V290H255.07V230.9l-.93-23.33h9l1.56,11.2c4.51-7,12.6-12.91,25.5-12.91,10.89,0,18.19,4.82,21.3,13.68,4.35-7.46,12.6-13.68,26-13.68,14.77,0,23,8.86,23,24.41V290Z"/><path d="M391.13,217.06c4.35-6.22,11.82-11.2,23.33-11.2,22.55,0,31.57,18.19,31.57,41.05v3.73c0,22.86-9,41.05-31.57,41.05-12.6,0-20.22-5.75-24.57-12.91L388.33,290h-9l.93-23.33V165.59h10.89Zm0,52.09c3.27,5.44,9.64,12.75,20.84,12.75,15.55,0,22.86-12.13,22.86-31.26v-3.73c0-19.13-7.31-31.26-22.86-31.26-11.2,0-17.57,7.31-20.84,12.75Z"/><path d="M473.7,207.58v56.14c0,12.44,7,18.19,17.88,18.19,13.06,0,19.44-7.31,22.86-12.75V207.58h10.89v59.09l.93,23.33h-9l-1.71-11.51C510.86,285.8,502,291.71,488,291.71c-16.48,0-25-11-25-26.44V207.58Z"/><path d="M580.84,206v10.42h-2.18c-12.44,0-18.5,7-21.93,12.44V290H545.85V230.9l-.93-23.33h9l1.56,10.88a26.52,26.52,0,0,1,23-12.6C579.59,205.87,580.68,206,580.84,206Z"/><path d="M649.88,274.91c-4.51,6.22-11.82,10.89-23.33,10.89-22.39,0-31.57-17.26-31.57-38.25v-3.42c0-20.68,9.17-38.25,31.57-38.25,12.6,0,20.21,5.75,24.57,12.75l1.55-11h9l-.93,23.33v59.87c0,18.5-8.86,32-32.34,32-23.79,0-31.88-13.84-31.88-30.79v-2H607c0,15.55,5.91,23.33,21.3,23.33,15.86,0,21.62-8.09,21.62-23.17Zm-21-59.25c-15.39,0-22.86,11.51-22.86,28.46v3.42c0,17.26,7.46,28.46,22.86,28.46,11.35,0,17.57-7.31,21-12.6v-35C646.46,223,640.24,215.67,628.89,215.67Z"/><path d="M689.53,253.3c.47,18,8.09,29.23,24.57,29.23s23.33-10.11,23.33-19h10.42v.62c0,12.75-10.57,27.52-33.74,27.52-24.88,0-35.61-18.35-35.61-41.21v-3.42c0-22.86,10.73-41.21,34.83-41.21s34.52,18.35,34.52,41.21v6.22Zm0-9H736.8c-.62-17.88-7.93-29.23-23.64-29.23C697.62,215,690,226.39,689.53,244.28Z"/><path d="M784.23,207.58H807.4v9.8H784.23V290H773.34V217.38H760.28v-9.8h13.06V188.45c0-17.88,10.11-24.57,24.1-24.57A32.69,32.69,0,0,1,809,165.59v9.49c-1.24-.62-5.44-1.4-8.86-1.4-10.42,0-15.86,3.11-15.86,16.17Z"/><path d="M822.17,250.65v-3.73c0-22.86,10.42-41.05,34.68-41.05s34.68,18.19,34.68,41.05v3.73c0,22.86-10.42,41.05-34.68,41.05S822.17,273.51,822.17,250.65Zm58.31,0v-3.73c0-18.82-7.31-31.26-23.64-31.26s-23.64,12.44-23.64,31.26v3.73c0,18.82,7.31,31.26,23.64,31.26S880.48,269.47,880.48,250.65Z"/><path d="M960.87,290V233.86c0-12.44-7-18.19-17.88-18.19-12.91,0-19.28,7.31-22.7,12.75V290H909.4V230.9l-.93-23.33h9L919,219.24c4.82-7.31,13.53-13.37,27.68-13.37,16.33,0,25,11,25,26.44V290Z"/><path d="M1036.29,207.58v9.8H1010v48.36c0,13.06,5.44,16.17,15.86,16.17,3.42,0,7.62-.78,8.86-1.4V290a32.67,32.67,0,0,1-11.51,1.71c-14,0-24.1-6.69-24.1-24.57V217.38H986.06v-9.8h13.06V184.25H1010v23.33Z"/><path d="M1104.55,267.45c0-11.2-6.53-13.84-22.55-15.24-22.24-1.87-28.61-9.64-28.61-21.93v-.93c0-14.31,11.35-23.48,30.63-23.48,22.55,0,30.79,11.51,30.79,27.68v.62h-10.73c0-11.82-4.67-19.13-20.06-19.13-12.44,0-19.75,5.13-19.75,14.31,0,8.55,4,13.22,21.93,14.62,20.68,1.71,29.55,7.62,29.55,22.7v.78c0,14.31-11.35,24.26-31.72,24.26-23.33,0-31.72-13.68-31.72-26.28v-.62h10.89c0,9,4.51,17.73,20.84,17.73C1097.4,282.53,1104.55,276.62,1104.55,267.45Z"/></g><g id="Ebene_1" data-name="Ebene 1"><g class="cls-2"><g class="cls-2"><g class="cls-3"><g class="cls-4"><line class="cls-5" y1="292" x2="1200" y2="292"/></g></g><g class="cls-3"><g class="cls-6"><line class="cls-5" x1="805" y1="178.5" x2="1090" y2="178.5"/></g></g><g class="cls-3"><g class="cls-7"><line class="cls-5" x1="94" y1="170" x2="406" y2="170"/></g></g></g><g class="cls-8"><g class="cls-9"><g class="cls-10"><path class="cls-11" d="M279,215a20,20,0,1,1-20-20,20,20,0,0,1,20,20"/><path class="cls-11" d="M365,69a40,40,0,1,1-40-40,40,40,0,0,1,40,40"/><polyline class="cls-12" points="259 214.5 259 135 325 69"/></g></g></g><path class="cls-13" d="M338.93,91H310.78V86.81l11.28-11.34a83.07,83.07,0,0,0,6.8-7.44,19,19,0,0,0,2.46-4.34,12.43,12.43,0,0,0,.82-4.54,7.2,7.2,0,0,0-2.08-5.43,8,8,0,0,0-5.77-2,14.51,14.51,0,0,0-5.05.88,20.14,20.14,0,0,0-5.32,3.19l-2.58-3.31a19.74,19.74,0,0,1,12.89-4.92q6,0,9.46,3.09a10.63,10.63,0,0,1,3.43,8.31A16,16,0,0,1,334.83,67q-2.29,4-8.55,10.08l-9.37,9.17v.23h22Z"/><g class="cls-14"><g class="cls-9"><g class="cls-15"><path class="cls-11" d="M450,72a40,40,0,1,1-40-40,40,40,0,0,1,40,40"/><line class="cls-12" x1="410.02" y1="247.5" x2="410.02" y2="71.5"/><path class="cls-11" d="M412,216c-10.42-.07-16.11,4.72-20.74,12.35l-.18,20.3.1,20.87c3.9,5,8.6,12.2,21.46,12.5,7.74.18,14.08-3.94,18.21-10.53,2.11-3.37,3.08-8.1,3.86-19.9.71-10.81-1.29-22.31-5.09-27.62s-9.67-8-17.61-8"/></g></g></g><path class="cls-13" d="M422.32,61.25A9.77,9.77,0,0,1,420,68a11.51,11.51,0,0,1-6.52,3.49v.23q5.16.64,7.65,3.28a9.66,9.66,0,0,1,2.49,6.91q0,6.12-4.25,9.42t-12.07,3.3a35,35,0,0,1-6.23-.51,21.26,21.26,0,0,1-5.49-1.8V87.64a28.05,28.05,0,0,0,11.89,2.81q11.1,0,11.1-8.7,0-7.79-12.25-7.79h-4.22V69.77h4.28a12.88,12.88,0,0,0,7.94-2.21,7.26,7.26,0,0,0,2.93-6.14,6.05,6.05,0,0,0-2.15-4.92,8.88,8.88,0,0,0-5.84-1.79,18,18,0,0,0-5.3.76,23.76,23.76,0,0,0-5.68,2.81L395.83,55a20.51,20.51,0,0,1,6.08-3.27,22.09,22.09,0,0,1,7.25-1.19q6.24,0,9.7,2.86A9.62,9.62,0,0,1,422.32,61.25Z"/><g class="cls-16"><g class="cls-9"><g class="cls-17"><path class="cls-11" d="M763.14,254.18a20,20,0,1,1-20-20,20,20,0,0,1,20,20"/><path class="cls-11" d="M783.14,115.18a40,40,0,1,1-40-40,40,40,0,0,1,40,40"/><line class="cls-12" x1="743.14" y1="253.68" x2="743.14" y2="114.68"/></g></g></g><path class="cls-13" d="M742.3,111q6.77,0,10.65,3.35a11.51,11.51,0,0,1,3.88,9.18q0,6.65-4.23,10.43t-11.67,3.78q-7.24,0-11-2.31v-4.69a16.79,16.79,0,0,0,5.1,2.07,25.16,25.16,0,0,0,6,.75q5.16,0,8-2.43a8.72,8.72,0,0,0,2.86-7q0-9-11-9a43.74,43.74,0,0,0-7.44.85l-2.52-1.61,1.61-20h21.3v4.48H736.68l-1.08,12.86A34.14,34.14,0,0,1,742.3,111Z"/><g class="cls-18"><g class="cls-9"><g class="cls-19"><path class="cls-11" d="M652.4,281a20,20,0,1,1-20-20,20,20,0,0,1,20,20"/><path class="cls-11" d="M672.4,72a40,40,0,1,1-40-40,40,40,0,0,1,40,40"/><line class="cls-12" x1="632.4" y1="280.5" x2="632.4" y2="71.5"/></g></g></g><path class="cls-13" d="M648.35,84.16H642V94h-4.66V84.16H616.5V79.91l20.33-29H642v28.8h6.36Zm-11-4.42V65.49q0-4.19.29-9.46h-.23a44,44,0,0,1-2.64,4.66l-13.39,19Z"/><g class="cls-20"><g class="cls-9"><g class="cls-21"><path class="cls-11" d="M1105.29,211.67a20,20,0,1,1-20-20,20,20,0,0,1,20,20"/><path class="cls-11" d="M1125.29,97.67a40,40,0,1,1-40-40,40,40,0,0,1,40,40"/><line class="cls-12" x1="1085.29" y1="211.17" x2="1085.29" y2="97.17"/></g></g></g><path class="cls-13" d="M1071.56,101.36q0-12.63,4.91-18.88T1091,76.22a19.36,19.36,0,0,1,5.21.56V81a16.7,16.7,0,0,0-5.16-.73q-6.88,0-10.52,4.29t-4,13.49h.35q3.22-5,10.2-5,5.77,0,9.1,3.49t3.33,9.46q0,6.68-3.65,10.5t-9.86,3.82a12.67,12.67,0,0,1-10.55-5Q1071.56,110.27,1071.56,101.36Zm14.38,14.77a8.14,8.14,0,0,0,6.46-2.62q2.3-2.62,2.3-7.57a9.77,9.77,0,0,0-2.14-6.68q-2.14-2.43-6.39-2.43a10.78,10.78,0,0,0-4.83,1.08,9,9,0,0,0-3.5,3,6.91,6.91,0,0,0-1.3,4,13.56,13.56,0,0,0,1.17,5.63,9.91,9.91,0,0,0,3.33,4.13A8.29,8.29,0,0,0,1085.95,116.13Z"/><g class="cls-22"><g class="cls-9"><g class="cls-23"><path class="cls-11" d="M227,205a20,20,0,1,1-20-20,20,20,0,0,1,20,20"/><path class="cls-11" d="M247,107a40,40,0,1,1-40-40,40,40,0,0,1,40,40"/><line class="cls-12" x1="207" y1="204.5" x2="207" y2="106.5"/></g></g></g><path class="cls-13" d="M210.79,129H206V98.47q0-3.81.23-7.21-.62.62-1.38,1.29t-7,5.71l-2.58-3.34,11.34-8.76h4.1Z"/></g></g></svg>