<svg xmlns="http://www.w3.org/2000/svg" viewBox="0 0 1200 290.31"><defs><style>.cls-1,.cls-6{fill:none;stroke-miterlimit:10;stroke-width:4px;}.cls-1{stroke:#000;opacity:0.2;}.cls-2{font-size:171px;font-family:Faustina-Regular, Faustina;}.cls-3{letter-spacing:-0.01em;}.cls-4{opacity:0.7;}.cls-5{fill:#005b72;}.cls-6{stroke:#005b72;}.cls-7{font-size:60px;fill:#fff;font-family:OpenSans, Open Sans;}</style></defs><title>faustina</title><g id="lines"><line class="cls-1" y1="260" x2="1200" y2="260"/><line class="cls-1" x1="805" y1="153.5" x2="1090" y2="153.5"/><line class="cls-1" x1="94" y1="145" x2="406" y2="145"/></g><g id="font"><text class="cls-2" transform="translate(35.83 258)">Hambu<tspan class="cls-3" x="539.67" y="0">r</tspan><tspan x="599.35" y="0">gefonts</tspan></text></g><g id="caption"><g class="cls-4"><circle class="cls-5" cx="180" cy="186" r="20"/><circle class="cls-5" cx="245" cy="40" r="40"/><polyline class="cls-6" points="179 185.5 179 106 245 40"/><circle class="cls-5" cx="407" cy="153" r="20"/></g><text class="cls-7" transform="translate(226.85 62)">2</text><g class="cls-4"><circle class="cls-5" cx="482" cy="40" r="40"/><polyline class="cls-6" points="408 133 408 109 466 62"/><path class="cls-6" d="M408,.5" transform="translate(0 -32)"/></g><text class="cls-7" transform="translate(464.85 62)">3</text><g class="cls-4"><circle class="cls-5" cx="698" cy="179" r="20"/><circle class="cls-5" cx="698" cy="40" r="40"/><line class="cls-6" x1="698" y1="178.5" x2="698" y2="39.5"/></g><text class="cls-7" transform="translate(680.85 62)">4</text><g class="cls-4"><circle class="cls-5" cx="785" cy="249" r="20"/><circle class="cls-5" cx="785" cy="40" r="40"/><line class="cls-6" x1="785" y1="248.5" x2="785" y2="39.5"/></g><text class="cls-7" transform="translate(767.85 62)">5</text><g class="cls-4"><circle class="cls-5" cx="1139" cy="183" r="20"/><circle class="cls-5" cx="1139" cy="40" r="40"/><line class="cls-6" x1="1139" y1="163" x2="1139" y2="39.5"/></g><text class="cls-7" transform="translate(1121.85 62)">6</text><g class="cls-4"><circle class="cls-5" cx="84" cy="148" r="20"/><circle class="cls-5" cx="84" cy="40" r="40"/><line class="cls-6" x1="84" y1="137.5" x2="84" y2="39.5"/></g><text class="cls-7" transform="translate(66.85 62)">1</text></g></svg>