<?xml version="1.0" encoding="utf-8"?>
<!-- Generator: Adobe Illustrator 22.1.0, SVG Export Plug-In . SVG Version: 6.00 Build 0)  -->
<svg version="1.1" id="Ebene_1" xmlns="http://www.w3.org/2000/svg" xmlns:xlink="http://www.w3.org/1999/xlink" x="0px" y="0px"
	 viewBox="0 0 1200 400" style="enable-background:new 0 0 1200 400;" xml:space="preserve">
<style type="text/css">
	.st0{opacity:0.2;fill:none;stroke:#000000;stroke-width:4;stroke-miterlimit:10;enable-background:new    ;}
	.st1{opacity:0.7;}
	.st2{fill:#005B72;}
	.st3{fill:none;stroke:#005B72;stroke-width:4;stroke-miterlimit:10;}
	.st4{fill:#FFFFFF;}
</style>
<title>font-characteristics</title>
<g id="lines">
	<line class="st0" x1="0" y1="292" x2="1200" y2="292"/>
	<line class="st0" x1="805" y1="185.5" x2="1090" y2="185.5"/>
	<line class="st0" x1="94" y1="177" x2="406" y2="177"/>
</g>
<g id="font">
	<path d="M29.3,185.6l1-6.8h48.6l-0.9,6.8L63,189v39.1h56v-38.8l-16.3-3.8l1-6.8h48.8l-1.1,6.8l-14.9,3.4v90.8l16.3,3l-0.9,7.2
		h-48.5l0.9-6.6l14.8-4.2v-41.8H63v42.4l16.4,3l-1.2,7.2H29.9l0.7-6.6l14.9-4.2v-89.8L29.3,185.6z"/>
	<path d="M173.1,292.1c-3,0-6-0.7-8.8-2.1c-2.6-1.3-4.9-3.4-6.4-5.9c-1.6-2.8-2.5-5.9-2.4-9.2c0-4.7,1.6-9.3,4.4-13
		c2.9-4,7.5-7.5,13.6-10.2c6.2-2.8,13.9-4.5,23.2-5.1v-4.9c0-6.9-1.2-12.6-3.7-17.1c-2.4-4.5-6.5-6.7-12.1-6.8
		c-2.8,0-4.8,0.6-6.1,1.7c-1.4,1.4-2.2,3.2-2.4,5.1c-0.4,2.3-0.9,6.4-1.4,12.4c-3,0.1-6.1-0.5-8.8-1.7c-2.4-1.1-3.6-3.6-3.6-7.5
		c0-3.1,1.6-6.1,4.9-8.9c3.6-3,7.7-5.3,12.1-6.8c4.3-1.6,8.9-2.5,13.5-2.6c7.9,0,13.5,2.2,16.9,6.6s5.1,11.3,5.1,20.9v32.4
		c-0.1,2.2,0.2,4.4,0.8,6.6c0.5,1.5,1.5,2.7,2.9,3.5c2,1,4.1,1.6,6.3,1.9l4.5,0.8l-1.2,7.7c-0.9,0.1-2.3,0.4-4.1,0.7
		c-2.6,0.6-5.3,1-8.1,1c-2.8,0.1-5.5-0.5-7.9-1.8c-1.9-1-3.5-2.6-4.5-4.5c-0.9-1.8-1.4-3.7-1.4-5.7v-1.3h-1c-2.1,3.8-5.1,7-8.7,9.4
		C184.7,290.7,179.5,292.1,173.1,292.1z M196.8,251.8c-9.3,1.8-15.9,4.3-19.8,7.5c-3.7,2.7-5.8,7-5.8,11.6c0,1.6,0.4,3.3,1.2,4.7
		c0.8,1.6,2,3,3.4,4c1.6,1.1,3.5,1.7,5.4,1.6c3,0,6-0.9,8.6-2.5c2.6-1.5,5-3.3,7-5.5L196.8,251.8z"/>
	<path d="M270.5,290h-41.2l0.9-6.6l13.4-3.6v-54.1l-14.3-4.6l0.9-6.7l27.2-3.8l1.6,1.9l-1.6,11.3h0.8c3.3-4,7.3-7.4,11.8-9.9
		c4.6-2.6,9.7-4,15-4c4.4-0.1,8.6,1.2,12.3,3.6c3.7,2.4,6.1,6.1,7.5,11.2h1.1c3.2-4.1,7.1-7.5,11.6-10.1c4.5-2.6,9.6-4,14.8-4
		c14.1,0,21.1,8.3,21.1,24.9v44.1l12.3,3.2l-1.2,7h-38l0.6-6.5l11.2-3.6v-42.2c0.1-4.1-1.3-8.1-4-11.2c-2.7-3-6.3-4.5-11-4.5
		c-3.2-0.1-6.4,0.7-9.2,2.4c-2.9,1.8-5.5,4-7.8,6.6v48.8l13.2,3.1l-0.9,7.1H279l1-6.6l11.7-3.6v-42.1c0.1-2.8-0.6-5.6-2-8.1
		c-1.3-2.3-3.2-4.2-5.5-5.5c-2.4-1.3-5.1-2-7.8-2c-3.3,0-6.6,0.7-9.6,2c-3,1.3-5.8,3.3-8,5.8v50l12.8,3.1L270.5,290z"/>
	<path d="M379.2,188.3l-13.5-4.7l1.2-6.8l24.8-1.9l2.1,2.1v37.2l-1.3,9.4h1c3.5-4,7.5-7.4,12.1-10.2c4.1-2.4,8.7-3.7,13.4-3.7
		c5.4-0.1,10.7,1.6,15.1,4.8c4.5,3.5,8,8.2,10.1,13.5c2.5,6.3,3.7,13.1,3.6,19.8c0,9.1-2,17-6,23.7c-3.8,6.5-9.4,11.8-16.1,15.3
		c-6.8,3.5-14.3,5.3-21.9,5.3c-4.4,0-8.7-0.6-13-1.6c-4.1-1-8-2.6-11.6-4.8L379.2,188.3z M393.8,230v46.2c2.2,2.1,4.9,3.6,7.9,4.4
		c3.6,1.2,7.3,1.7,11,1.7c3.5,0,6.9-1.1,9.6-3.1c3.2-2.4,5.6-5.8,7-9.6c1.7-4.3,2.6-9.6,2.6-16c0-5-0.6-10.1-1.7-15
		c-1-4.5-3-8.7-5.9-12.2c-2.8-3.3-7-5.2-11.4-5C405.6,221.4,399.2,224.2,393.8,230z"/>
	<path d="M466.4,224.9l-12.3-4.9l1.2-7.1l24-1.9l2.2,2.1v48.4c0,12.1,4.6,18.1,13.8,18.1c3.2,0.1,6.5-0.5,9.5-1.8
		c2.7-1.2,5.1-3,7.1-5.1v-47.4l-14.2-3.8l0.9-8.2l26.3-2.4l1.9,2.1v57.5c-0.1,2.2,0.3,4.4,1.1,6.5c0.6,1.3,1.7,2.4,3,3.1
		c1.8,0.8,3.6,1.3,5.5,1.7l4.1,0.9l-0.8,7.4c-2.8,0.7-5.1,1.1-6.9,1.3c-2.2,0.3-4.4,0.4-6.6,0.4c-4.3,0-7.6-1.2-9.8-3.6
		c-2.3-2.6-3.5-5.9-3.3-9.4v-0.8h-1.2c-6.3,9.2-14.8,13.8-25.5,13.8c-6.2,0-11.1-2-14.6-6.1c-3.5-4.1-5.3-10.7-5.3-19.8V224.9z"/>
	<path d="M594.8,290h-49.3l0.9-6.6l13.7-3.6v-54.9l-14.6-4.4l1.2-6.8l25.7-3.3l2,2.1l-1.8,20.6h1.7c1.3-4.7,3.3-9.1,6-13.2
		c2-3.2,4.7-6,7.8-8.2c2.4-1.7,5.2-2.6,8.1-2.7c2.7-0.1,5.3,1,7.1,3c1.8,1.9,2.8,4.4,2.8,7c0,3.8-1.7,7.1-5.1,9.9
		c-1.7-1.1-3.5-1.9-5.5-2.5c-1.8-0.6-3.6-0.9-5.5-0.9c-2.1,0.1-4.2,0.9-5.9,2.2c-2.4,1.7-4.4,4-5.8,6.6c-1.9,3.3-3.1,7-3.5,10.8
		v34.2l20.8,3L594.8,290z"/>
	<path d="M642.1,324.5c-9.3,0-17.1-1.6-23.2-4.7s-9.2-8.2-9.2-15.3c0-5.3,4.8-10.7,14.3-16.1v-0.8c-2.5-1.1-4.7-2.9-6.3-5.2
		c-1.5-2.1-2.2-4.5-2.2-7.1c0.2-1.9,1-3.8,2.3-5.2c1.7-2.1,3.6-3.9,5.8-5.5c2.1-1.6,4.4-2.9,6.8-3.9v-0.6c-1.7-0.4-3.7-1.7-6-3.9
		c-2.5-2.4-4.5-5.2-6-8.3c-1.7-3.3-2.6-6.9-2.5-10.5c0-4.8,1.5-9.5,4.3-13.5c2.9-4.2,6.7-7.7,11.2-10.1c4.4-2.5,9.3-3.8,14.3-3.8
		c7.3,0,13.6,1.9,18.8,5.6c2.4-0.1,5.7-0.3,10-0.7s7.4-0.6,9.2-0.8l1.8,2.1l-3.4,9.9h-1.4l-11-3.6v1.5c0.8,1.9,1.5,3.9,2,5.9
		c0.6,2.1,1,4.3,1,6.5c0.1,5-1.6,9.9-4.6,13.9c-3.1,4-7,7.3-11.6,9.4c-4.4,2.2-9.1,3.3-14,3.4c-1.6,0-3.1-0.1-4.6-0.3
		c-1.5-0.2-2.7-0.4-3.4-0.6c-3,3.1-4.5,5.7-4.5,7.9c0,2.1,1.1,3.7,3.3,4.8s6.6,1.6,13,1.6h12.2c7.3,0,13.2,1.4,17.8,4.3
		c4.6,2.9,6.9,7.4,6.9,13.7c0,5.1-2,9.9-5.9,14.5c-4.3,4.8-9.6,8.7-15.5,11.2C655.5,323,648.9,324.5,642.1,324.5z M630.1,289.7
		c0-0.2-0.4,0.1-1.3,0.8c-1,0.9-1.8,2-2.3,3.3c-0.7,1.9-1.1,3.9-1,5.9c0,10.2,7.2,15.3,21.5,15.3c6.4,0,11.5-1.3,15.3-3.8
		s5.8-6.6,5.8-12.1c0-2.6-0.7-4.6-2.2-5.9c-1.5-1.3-3.7-2.2-6.8-2.6c-4.4-0.5-8.9-0.7-13.3-0.7H630.1z M643.5,216.5
		c-4.5,0-7.8,1.7-10,5.1s-3.3,8.1-3.3,14.1c-0.1,3.6,0.7,7.2,2.2,10.5c1.3,2.8,3.2,5.3,5.7,7.2c1.9,1.6,4.3,2.5,6.8,2.6
		c4.2,0,7.4-1.5,9.7-4.4s3.4-7.4,3.4-13.5c0-3.4-0.6-6.9-1.7-10.1c-1-3.1-2.7-5.9-5-8.3C649.3,217.6,646.5,216.4,643.5,216.5
		L643.5,216.5z"/>
	<path d="M725.5,292.7c-5.8,0-11.5-1.6-16.4-4.7c-5.4-3.4-9.7-8.2-12.5-14c-3.2-6.2-4.7-13.6-4.7-22.2c0-8.5,1.8-16,5.4-22.3
		c3.3-6,8.1-11.1,13.9-14.6c5.2-3.3,11.3-5,17.4-5.1c4.2,0,8.4,1.1,12.1,3.3c3.8,2.3,6.8,5.7,8.6,9.6c2.2,4.9,3.3,10.2,3.2,15.5
		c0,1.9-0.2,3.8-0.5,5.7c-0.2,2-0.6,4-1,5.9l-43.2,0.5c0.2,5,1.3,9.9,3.2,14.6c1.8,4.5,4.6,8.5,8.3,11.6c3.8,3,8.5,4.6,13.4,4.5
		c2.9,0,5.1-0.1,6.8-0.2c2-0.2,3.9-0.7,5.8-1.3c2.7-0.9,5.2-2,7.7-3.4l1.9,4.7c-3.7,3.8-8.1,6.8-13,8.8
		C736.7,291.7,731.1,292.7,725.5,292.7z M724.2,218.4c-2.7,0.1-5.3,1-7.3,2.7c-2.7,2.2-4.7,5.1-6,8.3c-1.8,4.4-2.8,9.1-2.9,13.8
		l28.1-2c0.2-1,0.4-1.9,0.4-2.9c0.1-1.3,0.1-2.4,0.1-3.3C736.6,224,732.4,218.4,724.2,218.4L724.2,218.4z"/>
	<path d="M812.8,290h-50.8l1.1-6.5l13.6-3.8v-59.7h-13.3l1.1-6.5l12.3-2c1-8.7,3.2-16.1,6.8-22.2c3.6-6.1,7.8-10.7,12.6-13.9
		c4.8-3.1,9.5-4.6,14-4.6c5,0,9,0.9,12.1,2.6c2.9,1.4,4.7,4.4,4.6,7.7c-0.1,2.3-1.1,4.4-2.7,6c-1.4,1.7-3.2,3.1-5.3,4
		c-2.3-2.8-4.8-5.3-7.7-7.5c-2.9-2.2-5.5-3.3-8-3.3c-3.5-0.1-6.7,1.8-8.3,4.9c-1.9,3.2-3,9-3.2,17.2l-0.2,9.7h23l-1.1,7.9h-21.9
		v59.2l21.9,3.4L812.8,290z"/>
	<path d="M862.2,292.4c-7.7,0-14.3-1.8-19.8-5.3c-5.5-3.5-9.9-8.5-12.6-14.4c-3-6.5-4.5-13.6-4.3-20.8c0-8.7,1.8-16.3,5.5-22.7
		c3.3-6.1,8.3-11.3,14.3-14.8c5.8-3.4,12.4-5.1,19.1-5.1c6.6-0.2,13.2,1.6,18.8,5.2c5.4,3.5,9.7,8.6,12.2,14.5
		c2.9,6.8,4.4,14.2,4.2,21.6c0.1,7.5-1.6,15-5,21.7c-3.1,6.1-7.7,11.2-13.5,14.8C875.4,290.6,868.9,292.5,862.2,292.4z M860.6,218.7
		c-3.9-0.1-7.7,1.2-10.8,3.7c-3,2.6-5.2,6-6.4,9.8c-1.4,4.3-2.1,8.9-2,13.4c0,6.3,0.8,12.5,2.4,18.6c1.3,5.3,4,10.2,7.8,14.1
		c3.6,3.6,8.6,5.6,13.7,5.5c3.7,0.1,7.3-1.3,10.1-3.7c2.9-2.6,5-5.9,6.3-9.6c1.4-4,2.1-8.3,2-12.5c0-6.3-0.8-12.5-2.4-18.6
		c-1.3-5.5-3.9-10.5-7.6-14.8C870.4,220.7,865.6,218.6,860.6,218.7z"/>
	<path d="M949,290h-41.4l0.9-6.5l13.5-3.7v-54.2l-13.8-4.6l0.9-6.8l26.6-3.5l1.5,1.7l-1.5,11.4h0.9c3.4-4,7.5-7.5,12.1-10.1
		c4.5-2.6,9.6-4,14.8-4c7,0,12.3,2.2,16,6.6c3.7,4.4,5.5,10.6,5.5,18.7v44.9l12.9,3.1l-0.9,7h-40.1l0.9-6.5l12.3-3.7v-41.4
		c0-5.5-1.4-9.7-4.2-12.4c-2.8-2.7-6.6-4.1-11.3-4.1c-3.3,0-6.6,0.7-9.7,2c-3,1.3-5.7,3.2-8,5.7v50.1l13.3,3.1L949,290z"/>
	<path d="M1012.8,221.8h-11.3V217c4.1-3.4,7.8-7.1,11.3-11c3.8-4.2,7.4-8.6,10.7-13.1h4.7v21.3h25.3l-0.8,7.9h-24.7l-0.3,39.5
		c-0.1,3.6,0.3,7.1,1.3,10.5c0.7,2.3,2.2,4.2,4.2,5.5c2.4,1.2,5,1.7,7.6,1.6c2,0,4-0.4,5.8-1.1c1.7-0.7,3.4-1.5,5-2.5
		c0.7-0.4,1.4-0.9,2.1-1.4l1.9,4.8c-2.7,4-6.3,7.3-10.4,9.6c-4.2,2.3-8.9,3.5-13.8,3.5c-6,0-10.7-1.9-14.1-5.7
		c-3.4-3.8-5.1-10.3-5-19.6L1012.8,221.8z"/>
	<path d="M1087.3,293c-4.6,0.1-9.2-0.6-13.6-1.9c-3.4-1-6.5-2.7-9.1-5.1c-2-1.7-3.1-4.2-3.2-6.8c-0.1-3.1,1-6.2,3-8.6
		c2-2.4,4.9-3.8,7.9-3.9c2,5.8,4.5,10.2,7.6,13.2c2.7,2.8,6.3,4.4,10.2,4.4c3,0.1,5.9-0.6,8.5-2.2c2.2-1.5,3.3-3.7,3.3-6.8
		c0-2-0.7-3.8-2-5.3c-1.4-1.7-3.1-3.2-5-4.5c-2-1.3-4.8-3-8.3-5c-4.1-2.3-8.1-4.8-11.9-7.6c-3.1-2.3-5.8-5.1-7.9-8.3
		c-2.2-3.4-3.3-7.3-3.3-11.4c0-3.9,1.1-7.7,3-11c2.2-3.8,5.3-6.9,9.1-9.1c4.4-2.5,9.4-3.8,14.5-3.6c3.9-0.1,7.8,0.6,11.4,2.1
		c3,1.2,5.7,3.2,7.7,5.7c1.8,2.3,2.7,5.2,2.7,8.1c0.1,3.1-1.1,6.1-3.3,8.3c-2.2,2.1-5.3,3.3-9.2,3.6c-1.1-6.8-2.8-11.9-5.2-15.2
		c-2.4-3.4-5.3-5-8.8-5c-2.8-0.1-5.5,1-7.3,3.1c-1.8,2.1-2.8,4.8-2.7,7.6c0,2.4,0.8,4.6,2.2,6.5c1.6,2,3.4,3.7,5.5,5.1
		c2.2,1.5,5.3,3.3,9.2,5.5c4,2.1,7.9,4.5,11.6,7c3,2.1,5.5,4.7,7.6,7.7c2.1,3.1,3.2,6.8,3.1,10.6c0,4.2-1.4,8.3-3.9,11.6
		c-2.7,3.5-6.2,6.4-10.3,8.2C1096.5,292,1091.9,293,1087.3,293z"/>
</g>
<g>
	<g class="st1">
		<circle class="st2" cx="569.8" cy="48" r="40"/>
		<line class="st3" x1="569.8" y1="223.5" x2="569.8" y2="47.5"/>
		<path class="st2" d="M571.7,196.9c-8.6,0-14.8,1.7-18.6,5.1s-5.7,9.2-5.7,17.3c0,8.1,1.9,13.9,5.8,17.4c3.9,3.5,10.1,5.2,18.8,5.2
			c7.7,0,13.5-2,17.3-5.9c3.8-3.9,5.7-9.5,5.7-16.9c0-7.5-1.9-13.1-5.7-16.8C585.5,198.8,579.6,196.9,571.7,196.9z"/>
	</g>
	<path class="st4" d="M582.1,37.2c0.1,2.5-0.7,4.9-2.3,6.8c-1.7,1.8-4,3.1-6.5,3.5v0.2c3.4,0.4,6,1.5,7.6,3.3
		c1.7,1.9,2.6,4.4,2.5,6.9c0,4.1-1.4,7.2-4.2,9.4c-2.8,2.2-6.9,3.3-12.1,3.3c-2.1,0-4.2-0.2-6.2-0.5c-1.9-0.3-3.8-1-5.5-1.8v-4.7
		c3.7,1.8,7.8,2.8,11.9,2.8c7.4,0,11.1-2.9,11.1-8.7c0-5.2-4.1-7.8-12.2-7.8h-4.2v-4.2h4.3c2.8,0.2,5.6-0.6,7.9-2.2
		c1.9-1.4,3-3.7,2.9-6.1c0.1-1.9-0.7-3.7-2.2-4.9c-1.7-1.3-3.7-1.9-5.8-1.8c-1.8,0-3.6,0.2-5.3,0.8c-2,0.7-3.9,1.6-5.7,2.8l-2.5-3.3
		c1.8-1.4,3.9-2.5,6.1-3.3c2.3-0.8,4.8-1.2,7.3-1.2c4.2,0,7.4,1,9.7,2.9C580.9,31.3,582.2,34.2,582.1,37.2z"/>
</g>
<g>
	<g class="st1">
		<circle class="st2" cx="785.4" cy="283.8" r="20"/>
		<circle class="st2" cx="785.4" cy="76" r="40"/>
		<line class="st3" x1="785.4" y1="282.3" x2="785.4" y2="75.5"/>
	</g>
	<path class="st4" d="M801.4,88.2h-6.4V98h-4.7v-9.8h-20.9v-4.2l20.3-29h5.2v28.8h6.4V88.2z M790.4,83.7V69.5c0-2.8,0.1-5.9,0.3-9.5
		h-0.3c-0.8,1.6-1.7,3.2-2.6,4.7l-13.4,19H790.4z"/>
</g>
<g>
	<g class="st1">
		<circle class="st2" cx="932.3" cy="222.1" r="20"/>
		<circle class="st2" cx="932" cy="55.5" r="40"/>
		<line class="st3" x1="932" y1="212.4" x2="932" y2="55"/>
	</g>
	<path class="st4" d="M931.2,51.3c4.5,0,8.1,1.1,10.6,3.3c2.6,2.3,4.1,5.7,3.9,9.2c0,4.4-1.4,7.9-4.2,10.4s-6.7,3.8-11.7,3.8
		c-4.8,0-8.5-0.8-11-2.3v-4.7c1.6,1,3.3,1.7,5.1,2.1c2,0.5,4,0.7,6,0.8c3.4,0,6.1-0.8,8-2.4c2-1.8,3-4.4,2.9-7c0-6-3.7-9-11-9
		c-2.5,0.1-5,0.4-7.4,0.8l-2.5-1.6l1.6-20h21.3v4.5h-17.2L924.5,52C926.7,51.6,928.9,51.4,931.2,51.3z"/>
</g>
<g>
	<g class="st1">
		<circle class="st2" cx="1104" cy="222.1" r="20"/>
		<circle class="st2" cx="1104" cy="108.1" r="40"/>
		<line class="st3" x1="1104" y1="221.6" x2="1104" y2="107.6"/>
	</g>
	<path class="st4" d="M1090.3,111.8c0-8.4,1.6-14.7,4.9-18.9c3.3-4.2,8.1-6.3,14.5-6.3c1.8-0.1,3.5,0.1,5.2,0.6v4.2
		c-1.7-0.5-3.4-0.8-5.2-0.7c-4.6,0-8.1,1.4-10.5,4.3s-3.8,7.4-4,13.5h0.4c2.1-3.3,5.5-5,10.2-5c3.9,0,6.9,1.2,9.1,3.5
		c2.2,2.3,3.3,5.5,3.3,9.5c0,4.4-1.2,7.9-3.6,10.5c-2.6,2.6-6.2,4-9.9,3.8c-4.1,0.1-8.1-1.7-10.6-5
		C1091.6,122.4,1090.3,117.8,1090.3,111.8z M1104.7,126.6c2.4,0.1,4.8-0.8,6.5-2.6c1.5-1.7,2.3-4.3,2.3-7.6c0.1-2.4-0.6-4.8-2.1-6.7
		c-1.4-1.6-3.6-2.4-6.4-2.4c-1.7,0-3.3,0.4-4.8,1.1c-1.4,0.7-2.6,1.7-3.5,3c-0.8,1.2-1.3,2.6-1.3,4c0,1.9,0.4,3.9,1.2,5.6
		c0.7,1.7,1.9,3.1,3.3,4.1C1101.2,126.1,1102.9,126.6,1104.7,126.6L1104.7,126.6z"/>
</g>
<g>
	<g class="st1">
		<circle class="st2" cx="68" cy="183" r="20"/>
		<circle class="st2" cx="68" cy="85" r="40"/>
		<line class="st3" x1="68" y1="182.5" x2="68" y2="84.5"/>
	</g>
	<path class="st4" d="M71.8,107h-4.7V76.5c0-2.5,0.1-4.9,0.2-7.2c-0.4,0.4-0.9,0.8-1.4,1.3s-2.8,2.4-7,5.7l-2.6-3.3l11.3-8.8h4.1
		L71.8,107z"/>
</g>
<g>
	<g class="st1">
		<circle class="st2" cx="393.8" cy="217" r="20"/>
		<circle class="st2" cx="393.8" cy="52" r="40"/>
		<line class="st3" x1="393.8" y1="213" x2="393.8" y2="51.5"/>
	</g>
	<path class="st4" d="M407.7,74h-28.1v-4.2l11.3-11.3c2.4-2.3,4.7-4.8,6.8-7.5c1-1.3,1.8-2.8,2.5-4.3c0.6-1.5,0.8-3,0.8-4.6
		c0.1-2-0.7-4-2.1-5.4c-1.6-1.4-3.7-2.1-5.8-2c-1.7,0-3.4,0.3-5,0.9c-1.9,0.8-3.7,1.9-5.3,3.2l-2.6-3.3c3.6-3.1,8.1-4.9,12.9-4.9
		c4,0,7.2,1,9.5,3.1c2.3,2.1,3.6,5.2,3.4,8.4c0,2.8-0.8,5.6-2.3,8c-1.5,2.7-4.4,6-8.6,10.1l-9.4,9.2v0.2h22L407.7,74z"/>
</g>
</svg>
