<svg xmlns="http://www.w3.org/2000/svg" viewBox="0 0 1200 400"><defs><style>.cls-1,.cls-4{fill:none;stroke-miterlimit:10;stroke-width:4px;}.cls-1{stroke:#000;opacity:0.2;}.cls-2{opacity:0.7;}.cls-3{fill:#005b72;}.cls-4{stroke:#005b72;}.cls-5{fill:#fff;}</style></defs><title>font-characteristics</title><g id="lines"><line class="cls-1" y1="292" x2="1200" y2="292"/><line class="cls-1" y1="321" x2="1200" y2="321"/><line class="cls-1" x1="805" y1="207.5" x2="1090" y2="207.5"/><line class="cls-1" x1="805" y1="179" x2="1090" y2="179"/><line class="cls-1" x1="94" y1="169" x2="406" y2="169"/></g><g id="font"><path d="M106.33,221.64V171.09h17.08V290H106.33V235.88H59V290H41.89V171.09H59v50.55Z"/><path d="M168.09,292.31q-11.57,0-18.42-6.77t-6.86-18.15A23.5,23.5,0,0,1,146,254.75a19.91,19.91,0,0,1,8.37-7.65,44.13,44.13,0,0,1,19.4-4.45,187.61,187.61,0,0,1,18.87.89V229.65q0-10.32-3.48-14.15t-13.26-3.82q-9.78,0-23.32,4.8l-3.73-11.21a45.4,45.4,0,0,1,13.61-5.17,66.66,66.66,0,0,1,14.69-1.95q17.27,0,24.39,7.47t7.12,25.1V274q0,6.24,4.27,6.24a27.53,27.53,0,0,0,7.83-1.61l2.67,10q-6.06,3.92-15.66,3.92t-13.89-9.08a31.32,31.32,0,0,1-11,6.32A42.76,42.76,0,0,1,168.09,292.31Zm3.38-12.64a38.47,38.47,0,0,0,21.19-6.41V252.62a93.78,93.78,0,0,0-13.89-.72q-20.82,0-21,13.89Q157.77,279.67,171.47,279.67Z"/><path d="M303.37,228.94V290h-16V229.12q0-8.19-2.13-12.82t-8.64-4.62A31.61,31.61,0,0,0,263,215.06a32.67,32.67,0,0,0-11.4,8.54V290h-16V199.93H248.9l1.78,10.86a50,50,0,0,1,13.09-8.73,36,36,0,0,1,15.75-3.91q16.2,0,21.18,13.17a55.21,55.21,0,0,1,13.89-9.08,37.18,37.18,0,0,1,16-4.09q23.86,0,23.86,30.08V290h-16V229.12q0-8.37-2.14-12.91t-8.36-4.53a30.08,30.08,0,0,0-13.18,3.38A48,48,0,0,0,303,222.89,40.22,40.22,0,0,1,303.37,228.94Z"/><path d="M393.79,165.4v41.11A43.92,43.92,0,0,1,404.21,201a36.92,36.92,0,0,1,14-2.85q13.53,0,22.61,11.12t9.07,31.24q0,51.8-39.33,51.8-18.87,0-32.76-8.54V165.4Zm21.72,46.28q-11,0-21.72,7.47v56.78q6.76,2.85,16.91,2.85,22.44,0,22.43-34.89Q433.13,211.69,415.51,211.68Z"/><path d="M495.25,292.31q-14.6,0-20.29-7.92t-5.7-22.7V199.93h16v61.41q0,8.9,2.32,13.08t9.34,4.18a43.17,43.17,0,0,0,13.71-2.22,30,30,0,0,0,11-6.14V200.46h16V291.6h-13L522.84,282a47.7,47.7,0,0,1-12.64,7.29A39.5,39.5,0,0,1,495.25,292.31Z"/><path d="M577.67,290h-16V199.93H575l1.78,13.35Q580,207.94,587.37,203a29.76,29.76,0,0,1,16.82-4.89A26,26,0,0,1,612,199l-3.2,12.81c-1.07-.11-2.61-.17-4.63-.17q-19.41,0-26.52,14.06Z"/><path d="M653.14,198.15l15,.89a159.23,159.23,0,0,0,27.59-2.5l2,10q-6.76,1.43-18.69,3,6.76,8.19,6.76,21.71t-8.19,22.52q-8.19,9-23.67,9.17a46.44,46.44,0,0,1-9.08-.89q-2.85,6.22-2.85,10.32,0,6.06,9.44,6.06h16.37q12.82,0,19.94,5.78t7.12,15.93a27.64,27.64,0,0,1-11.48,23.14Q671.82,332,654.12,332t-27-6.05a19.28,19.28,0,0,1-9.26-17.09q0-13.87,16.38-22.42c-3.09-2.5-4.63-6.17-4.63-11s2.32-10.26,6.94-16.2a27.6,27.6,0,0,1-11.21-11.66,36.43,36.43,0,0,1-3.92-17q0-14.41,8-23.4T653.14,198.15Zm11.21,94.16H642.46q-10,4.28-10,14.42,0,6.22,6,9.34t17.18,3.12q11.12,0,17.71-4.72a15,15,0,0,0,6.59-12.9c0-3.21-1.13-5.55-3.39-7S670.28,292.31,664.35,292.31Zm-10.68-81.88q-17.45,0-17.44,19.94t17.35,19.93q17.35,0,17.36-19.76,0-10.32-4-15.22T653.67,210.43Z"/><path d="M745.52,292.31q-19.93,0-29.64-13.62t-9.7-34.17q0-20.57,10.33-33.47t28.3-12.9q15.12,0,23.05,8.45t7.92,22.34q0,6.24-2.67,16H720.78q.35,15.14,6.58,24.57T746,279a56.12,56.12,0,0,0,23.41-5l4.1,11A55.51,55.51,0,0,1,745.52,292.31ZM761.18,232q0-9.61-3.91-15.13a12.58,12.58,0,0,0-10.86-5.52,24.42,24.42,0,0,0-11.48,2.4,18.75,18.75,0,0,0-7,6.14A39.36,39.36,0,0,0,722.56,233l38.62.35Z"/><path d="M803.37,193.34q0-17.09,7.3-24.47t25.63-7.39a78,78,0,0,1,21.36,3.2l-3.56,12.64a73.87,73.87,0,0,0-17.53-1.78q-10.43,0-13.71,3.74t-3.29,13.53v7.12H844l-1.78,12.63h-22.6V323.1l-16.2-1.6V212.56l-16.55-.88,1.6-10.51,15-1.24Z"/><path d="M915.87,280.92q-10.33,11.38-27.06,11.39t-26.7-11.21q-10-11.22-10-35.69t10.41-35.87Q873,198.15,889.7,198.15t26.61,11.21q9.88,11.22,9.88,35.69T915.87,280.92Zm-26.53-69.6q-20.82,0-20.82,33.91t20.65,33.91q8.54,0,14.59-8t6-26.7q0-18.69-5.25-25.9T889.34,211.32Z"/><path d="M1015.19,228.23V290h-16V229.12q0-8.19-2.14-12.82t-8.63-4.62a38.64,38.64,0,0,0-25.9,11.92V290h-16V199.93h13.35l1.78,10.86a48.51,48.51,0,0,1,13.44-8.73,38.65,38.65,0,0,1,16.29-3.91q13.35,0,18.6,7.92T1015.19,228.23Z"/><path d="M1070.19,292.31q-13.89,0-18.33-5.79t-4.45-19.84V212.56l-17.63-.88,1.61-10.51,16.37-1.24,1.6-21.36,14.42-2.67v24h26.35l-1.61,12.63H1063.6v55.72a42.78,42.78,0,0,0,.27,5.61,5.59,5.59,0,0,0,2,3.38q1.7,1.51,7.39,1.51a34.77,34.77,0,0,0,11.39-2l3,11.93A44.16,44.16,0,0,1,1070.19,292.31Z"/><path d="M1103.3,273.62q11.75,5.16,21.53,5.16t14.33-3.65a11.19,11.19,0,0,0,4.54-9.08,11.61,11.61,0,0,0-4.36-9.16,33.33,33.33,0,0,0-10.59-6q-6.23-2.22-12.55-4.71a25.53,25.53,0,0,1-10.68-7.92q-4.37-5.43-4.36-13.62,0-12.1,8.55-19.31t23.13-7.21q14.6,0,23.5,5.16l-3.74,11.93a58.58,58.58,0,0,0-19-3.56q-8.73,0-13,3.2a10.23,10.23,0,0,0-4.27,8.63,11,11,0,0,0,4.45,9,35.07,35.07,0,0,0,10.77,5.7c4.21,1.42,8.39,3,12.55,4.71a27.63,27.63,0,0,1,10.68,7.92,20.21,20.21,0,0,1,4.45,13.36,26.32,26.32,0,0,1-8.72,19.93q-8.73,8.19-24.92,8.19a59.56,59.56,0,0,1-15-2c-5-1.3-8.81-2.85-11.31-4.63Z"/></g><g id="caption"><g class="cls-2"><circle class="cls-3" cx="153" cy="206" r="20"/><circle class="cls-3" cx="219" cy="60" r="40"/><polyline class="cls-4" points="153 205.5 153 126 219 60"/><path class="cls-5" d="M232.93,82H204.78V77.81l11.28-11.34A81.59,81.59,0,0,0,222.85,59a18.51,18.51,0,0,0,2.46-4.33,12.38,12.38,0,0,0,.82-4.55,7.19,7.19,0,0,0-2.08-5.43,8,8,0,0,0-5.77-2,14.61,14.61,0,0,0-5.05.88,20.1,20.1,0,0,0-5.32,3.2l-2.58-3.32a19.77,19.77,0,0,1,12.89-4.92q6,0,9.47,3.09A10.65,10.65,0,0,1,231.11,50,16.1,16.1,0,0,1,228.83,58q-2.28,4-8.56,10.07l-9.37,9.17v.24h22Z"/></g><g class="cls-2"><circle class="cls-3" cx="812" cy="321" r="20"/><circle class="cls-3" cx="878" cy="60" r="40"/><polyline class="cls-4" points="812 320.5 812 126 878 60"/><path class="cls-5" d="M864.27,63.69q0-12.63,4.91-18.88t14.52-6.26a19.31,19.31,0,0,1,5.21.56V43.3a16.59,16.59,0,0,0-5.15-.73q-6.88,0-10.52,4.29t-4,13.49h.36q3.21-5,10.19-5,5.78,0,9.1,3.49t3.32,9.46q0,6.67-3.64,10.5a13,13,0,0,1-9.86,3.83,12.67,12.67,0,0,1-10.55-5Q864.27,72.6,864.27,63.69Zm14.39,14.77a8.14,8.14,0,0,0,6.46-2.63q2.29-2.62,2.3-7.57a9.75,9.75,0,0,0-2.14-6.68q-2.14-2.43-6.39-2.43a10.8,10.8,0,0,0-4.83,1.08,9,9,0,0,0-3.5,3,6.92,6.92,0,0,0-1.31,4,13.58,13.58,0,0,0,1.18,5.62,9.89,9.89,0,0,0,3.32,4.13A8.27,8.27,0,0,0,878.66,78.46Z"/></g><g class="cls-2"><circle class="cls-3" cx="691" cy="199" r="20"/><circle class="cls-3" cx="691" cy="60" r="40"/><line class="cls-4" x1="691" y1="198.5" x2="691" y2="59.5"/><path class="cls-5" d="M705,72.16h-6.36V82h-4.65V72.16H673.11V67.91l20.33-29h5.15v28.8H705Zm-11-4.43V53.49c0-2.79.09-5.94.29-9.46H694a44,44,0,0,1-2.64,4.66L678,67.73Z"/></g><g class="cls-2"><circle class="cls-3" cx="778" cy="277" r="20"/><circle class="cls-3" cx="778" cy="60" r="40"/><line class="cls-4" x1="778" y1="276.5" x2="778" y2="59.5"/><path class="cls-5" d="M777.17,55.84q6.76,0,10.64,3.35a11.52,11.52,0,0,1,3.89,9.19q0,6.65-4.24,10.43t-11.67,3.78q-7.24,0-11-2.32V75.58a16.87,16.87,0,0,0,5.1,2.07,25,25,0,0,0,6,.75c3.43,0,6.11-.81,8-2.44a8.73,8.73,0,0,0,2.86-7q0-9-11-9a43.26,43.26,0,0,0-7.44.85l-2.52-1.61,1.61-20h21.3v4.48H771.54l-1.08,12.86A34,34,0,0,1,777.17,55.84Z"/></g><g class="cls-2"><circle class="cls-3" cx="1057" cy="174" r="20"/><circle class="cls-3" cx="1057" cy="60" r="40"/><line class="cls-4" x1="1057" y1="173.5" x2="1057" y2="59.5"/><path class="cls-5" d="M1048.2,82,1066,43.65H1042.6V39.17h28.51v3.89L1053.59,82Z"/></g><g class="cls-2"><circle class="cls-3" cx="115" cy="168" r="20"/><circle class="cls-3" cx="115" cy="60" r="40"/><line class="cls-4" x1="115" y1="167.5" x2="115" y2="59.5"/><path class="cls-5" d="M118.79,82h-4.74V51.47q0-3.81.23-7.2c-.41.41-.87.84-1.37,1.28s-2.84,2.36-7,5.72l-2.58-3.34,11.34-8.76h4.1Z"/></g><g class="cls-2"><circle class="cls-3" cx="412" cy="60" r="40"/><line class="cls-4" x1="412" y1="235.5" x2="412" y2="59.5"/><path class="cls-5" d="M424.32,49.25A9.8,9.8,0,0,1,422,56a11.52,11.52,0,0,1-6.52,3.48v.24q5.16.65,7.65,3.28a9.64,9.64,0,0,1,2.49,6.91q0,6.12-4.25,9.42t-12.07,3.3a34.26,34.26,0,0,1-6.23-.52,21.28,21.28,0,0,1-5.49-1.8V75.64a28,28,0,0,0,11.9,2.82q11.1,0,11.1-8.71,0-7.78-12.25-7.79h-4.22V57.77h4.28a12.9,12.9,0,0,0,7.94-2.21,7.27,7.27,0,0,0,2.93-6.14,6.06,6.06,0,0,0-2.15-4.92,8.91,8.91,0,0,0-5.85-1.79,18.3,18.3,0,0,0-5.3.76,23.59,23.59,0,0,0-5.68,2.82L397.83,43a20.52,20.52,0,0,1,6.08-3.27,22.19,22.19,0,0,1,7.26-1.19q6.24,0,9.69,2.86A9.61,9.61,0,0,1,424.32,49.25Z"/><path class="cls-3" d="M415.51,211.68q-11,0-21.72,7.47v56.78q6.76,2.85,16.91,2.85,22.44,0,22.43-34.89Q433.13,211.69,415.51,211.68Z"/></g></g></svg>