<?xml version="1.0" encoding="utf-8"?>
<!-- Generator: Adobe Illustrator 22.1.0, SVG Export Plug-In . SVG Version: 6.00 Build 0)  -->
<svg version="1.1" xmlns="http://www.w3.org/2000/svg" xmlns:xlink="http://www.w3.org/1999/xlink" x="0px" y="0px"
	 viewBox="0 0 1200 400" style="enable-background:new 0 0 1200 400;" xml:space="preserve">
<style type="text/css">
	.st0{opacity:0.2;fill:none;stroke:#000000;stroke-width:4;stroke-miterlimit:10;}
	.st1{fill:#005B72;}
	.st2{font-family:'Ubuntu-Regular';}
	.st3{font-size:155.5px;}
	.st4{opacity:0.7;}
	.st5{fill:none;stroke:#005B72;stroke-width:4;stroke-miterlimit:10;}
	.st6{fill:#FFFFFF;}
	.st7{font-family:'OpenSans';}
	.st8{font-size:60px;}
</style>
<g id="lines">
	<line class="st0" x1="0" y1="292" x2="1200" y2="292"/>
	<line class="st0" x1="757" y1="185.5" x2="1090" y2="185.5"/>
	<line class="st0" x1="94" y1="180" x2="406" y2="180"/>
	<g>
		<path class="st1" d="M393.4,216c-9.5,0-16.4,2.7-20.6,8.2c-4.2,5.5-6.3,14.7-6.3,27.6c0,13,2.2,22.2,6.5,27.8
			c4.3,5.6,11.2,8.4,20.8,8.4c8.6,0,15-3.1,19.2-9.4c4.2-6.3,6.3-15.2,6.3-27c0-12-2.1-21-6.3-26.8C408.7,218.9,402.2,216,393.4,216
			z"/>
	</g>
</g>
<g id="font">
	<text transform="matrix(1 0 0 1 24.8271 289.9951)" class="st2 st3">Hamburgefonts</text>
</g>
<g id="caption">
	<g>
		<g class="st4">
			<circle class="st1" cx="160" cy="214" r="20"/>
			<circle class="st1" cx="226" cy="72" r="40"/>
			<polyline class="st5" points="160,217.5 160,138 226,72 			"/>
		</g>
		<text transform="matrix(1 0 0 1 208.8467 93.9999)" class="st6 st7 st8">2</text>
	</g>
	<g>
		<g class="st4">
			<circle class="st1" cx="394" cy="72" r="40"/>
			<line class="st5" x1="394" y1="247.5" x2="394" y2="71.5"/>
		</g>
		<text transform="matrix(1 0 0 1 376.8467 93.9999)" class="st6 st7 st8">3</text>
	</g>
	<g id="Layer_4">
	</g>
	<g>
		<g class="st4">
			<circle class="st1" cx="666" cy="211" r="20"/>
			<circle class="st1" cx="666" cy="72" r="40"/>
			<line class="st5" x1="666" y1="210.5" x2="666" y2="71.5"/>
		</g>
		<text transform="matrix(1 0 0 1 648.8467 93.9999)" class="st6 st7 st8">4</text>
	</g>
	<g>
		<g class="st4">
			<circle class="st1" cx="939" cy="214" r="20"/>
			<circle class="st1" cx="939" cy="72" r="40"/>
			<line class="st5" x1="939" y1="200" x2="939" y2="71.5"/>
		</g>
		<text transform="matrix(1 0 0 1 921.8467 93.9999)" class="st6 st7 st8">5</text>
	</g>
	<g>
		<g class="st4">
			<circle class="st1" cx="1028" cy="186" r="20"/>
			<circle class="st1" cx="1028" cy="72" r="40"/>
			<line class="st5" x1="1028" y1="185.5" x2="1028" y2="71.5"/>
		</g>
		<text transform="matrix(1 0 0 1 1010.8467 93.9999)" class="st6 st7 st8">6</text>
	</g>
	<g>
		<g class="st4">
			<circle class="st1" cx="114" cy="183" r="20"/>
			<circle class="st1" cx="114" cy="72" r="40"/>
			<line class="st5" x1="114" y1="169.5" x2="114" y2="71.5"/>
		</g>
		<text transform="matrix(1 0 0 1 96.8467 93.9999)" class="st6 st7 st8">1</text>
	</g>
</g>
<g id="grid">
</g>
</svg>
