<svg id="Ebene_1" data-name="Ebene 1" xmlns="http://www.w3.org/2000/svg" viewBox="0 0 841.89 251.91"><defs><style>.cls-1,.cls-2{fill:none;stroke-miterlimit:10;}.cls-1{stroke:#b2b2b2;stroke-width:3px;}.cls-2{stroke:#658c9a;stroke-width:2px;}.cls-3{fill:#658c9a;}.cls-4{fill:#1d1d1b;}.cls-5{font-size:30px;fill:#fff;font-family:OpenSans, Open Sans;}</style></defs><title>Zeichenfläche 1</title><line class="cls-1" x1="-15.5" y1="145" x2="853.72" y2="145"/><line class="cls-1" x1="-15.5" y1="127.4" x2="853.72" y2="127.4"/><line class="cls-1" x1="-15.29" y1="201.52" x2="853.92" y2="201.52"/><line class="cls-2" x1="109.87" y1="120.99" x2="109.87" y2="70.22"/><circle class="cls-3" cx="109.43" cy="56.98" r="24.09"/><line class="cls-2" x1="154.02" y1="176.76" x2="154.02" y2="104.22"/><circle class="cls-3" cx="153.58" cy="90.98" r="24.09"/><line class="cls-2" x1="194.39" y1="136.76" x2="194.39" y2="64.22"/><circle class="cls-3" cx="193.95" cy="50.98" r="24.09"/><line class="cls-2" x1="305.81" y1="171.97" x2="305.81" y2="64.22"/><circle class="cls-3" cx="305.37" cy="50.98" r="24.09"/><line class="cls-2" x1="460.83" y1="203.95" x2="460.83" y2="64.22"/><circle class="cls-3" cx="460.39" cy="50.98" r="24.09"/><line class="cls-2" x1="538.01" y1="188.77" x2="538.01" y2="104.22"/><circle class="cls-3" cx="537.57" cy="90.98" r="24.09"/><line class="cls-2" x1="584.84" y1="135.76" x2="584.84" y2="63.22"/><circle class="cls-3" cx="584.4" cy="49.98" r="24.09"/><circle class="cls-3" cx="110.43" cy="125.07" r="14.17"/><circle class="cls-3" cx="194.82" cy="149.28" r="14.17"/><ellipse class="cls-3" cx="304.55" cy="173.22" rx="18.37" ry="25.04"/><polygon class="cls-3" points="165.75 170.88 143.04 172.44 134.58 179.34 133.02 187.8 134.8 193.14 139.7 196.48 148.38 196.48 156.4 195.59 165.3 187.58 165.75 170.88"/><circle class="cls-3" cx="585.1" cy="127.8" r="14.17"/><circle class="cls-3" cx="539.09" cy="194.27" r="14.17"/><polygon class="cls-3" points="470.33 195.21 458.92 196.09 448.27 198.76 442.56 207.25 442.81 213.59 447 217.27 455.87 220.19 466.65 220.06 475.66 217.27 481.49 212.45 483.14 206.75 481.36 200.91 477.69 197.11 470.33 195.21"/><path class="cls-4" d="M113.86,200.08h-8.3V166.49H68v33.59h-8.3V128.7H68v30.37h37.6V128.7h8.3Z"/><path class="cls-4" d="M165.13,200.08l-1.61-7.61h-.39q-4,5-8,6.81a24.35,24.35,0,0,1-9.94,1.78q-8,0-12.48-4.1t-4.51-11.67q0-16.22,25.92-17l9.09-.3v-3.32c0-4.19-.91-7.3-2.71-9.3s-4.7-3-8.67-3q-6.69,0-15.14,4.1l-2.49-6.2a38.13,38.13,0,0,1,8.67-3.37,37.7,37.7,0,0,1,9.45-1.22q9.57,0,14.18,4.25t4.62,13.62v36.52Zm-18.31-5.71q7.58,0,11.89-4.15T163,178.6v-4.83l-8.1.34q-9.68.34-13.94,3c-2.85,1.78-4.28,4.53-4.28,8.28a8.36,8.36,0,0,0,2.66,6.69Q142,194.38,146.82,194.37Z"/><path class="cls-4" d="M256.05,200.08V165.27q0-6.39-2.74-9.59c-1.82-2.14-4.65-3.2-8.49-3.2q-7.57,0-11.18,4.34T230,170.2v29.88h-8.1V165.27q0-6.39-2.74-9.59c-1.82-2.14-4.67-3.2-8.54-3.2q-7.62,0-11.16,4.56t-3.54,15v28.07h-8.1V146.57h6.59l1.32,7.32h.39a15.88,15.88,0,0,1,6.47-6.1,19.7,19.7,0,0,1,9.35-2.2q12.54,0,16.4,9.08h.39a17.17,17.17,0,0,1,6.94-6.64A21.56,21.56,0,0,1,246,145.59q9.08,0,13.6,4.67t4.51,14.91v34.91Z"/><path class="cls-4" d="M305.76,145.69q10.55,0,16.38,7.2T328,173.28q0,13.18-5.88,20.48t-16.33,7.3a23.09,23.09,0,0,1-9.55-1.93A17.88,17.88,0,0,1,289,193.2h-.59l-1.71,6.88h-5.81v-76H289v18.46q0,6.19-.39,11.13H289Q294.62,145.69,305.76,145.69Zm-1.18,6.79q-8.29,0-12,4.76t-3.66,16q0,11.28,3.76,16.14t12.06,4.85q7.47,0,11.13-5.44t3.66-15.65q0-10.45-3.66-15.58T304.58,152.48Z"/><path class="cls-4" d="M349.75,146.57v34.72q0,6.54,3,9.76t9.32,3.22q8.4,0,12.28-4.59t3.89-15V146.57h8.1v53.51h-6.69l-1.17-7.17H378a16.17,16.17,0,0,1-6.91,6.05,23.21,23.21,0,0,1-10.08,2.1q-9.76,0-14.62-4.64t-4.86-14.84v-35Z"/><path class="cls-4" d="M427.92,145.59a31.77,31.77,0,0,1,6.4.59l-1.12,7.52a27.56,27.56,0,0,0-5.86-.73,14.25,14.25,0,0,0-11.11,5.27,19.19,19.19,0,0,0-4.61,13.13v28.71h-8.11V146.57h6.69l.93,9.91h.39a23.53,23.53,0,0,1,7.18-8.06A16.17,16.17,0,0,1,427.92,145.59Z"/><path class="cls-4" d="M488.13,146.57v5.13l-9.91,1.17a17.4,17.4,0,0,1,3.51,10.69q0,7.86-5.37,12.55t-14.74,4.69a24.64,24.64,0,0,1-4.5-.39q-5.17,2.73-5.17,6.88a3.5,3.5,0,0,0,1.8,3.25q1.81,1.05,6.21,1.05h9.47q8.69,0,13.35,3.66t4.67,10.65q0,8.88-7.13,13.55t-20.8,4.66q-10.5,0-16.19-3.91a12.61,12.61,0,0,1-5.69-11,12.37,12.37,0,0,1,3.13-8.45,15.82,15.82,0,0,1,8.79-4.83,8.47,8.47,0,0,1-3.45-2.89,7.59,7.59,0,0,1-1.39-4.54,8.6,8.6,0,0,1,1.56-5.12,16.37,16.37,0,0,1,4.94-4.25,14.48,14.48,0,0,1-6.77-5.81,17.11,17.11,0,0,1-2.61-9.38q0-8.79,5.27-13.55t14.95-4.76a27.16,27.16,0,0,1,7.56,1Zm-42.68,62.5a7.25,7.25,0,0,0,3.67,6.59q3.66,2.25,10.49,2.25,10.22,0,15.12-3t4.9-8.28q0-4.35-2.68-6c-1.79-1.12-5.16-1.69-10.11-1.69h-9.72q-5.52,0-8.59,2.64T445.45,209.07Zm4.4-45.36c0,3.74,1,6.57,3.17,8.49s5.06,2.88,8.84,2.88q11.86,0,11.87-11.52,0-12.06-12-12.06c-3.81,0-6.73,1-8.79,3.08S449.85,159.67,449.85,163.71Z"/><path class="cls-4" d="M521.72,201.06q-11.87,0-18.72-7.23t-6.86-20.06q0-12.95,6.37-20.56t17.11-7.62q10.07,0,15.92,6.62t5.86,17.45v5.13H504.54q.24,9.42,4.76,14.31T522,194a43.12,43.12,0,0,0,17.09-3.61v7.22a43.2,43.2,0,0,1-8.13,2.67A46.31,46.31,0,0,1,521.72,201.06Zm-2.19-48.68a13.23,13.23,0,0,0-10.28,4.2q-3.84,4.2-4.52,11.62h28q0-7.66-3.42-11.74T519.53,152.38Z"/><path class="cls-4" d="M579.34,152.87H565.72v47.21h-8.11V152.87H548v-3.66l9.57-2.93v-3q0-19.73,17.24-19.73a35.46,35.46,0,0,1,10,1.71l-2.1,6.49a27.15,27.15,0,0,0-8-1.51q-4.59,0-6.79,3.05t-2.19,9.79v3.47h13.62Z"/><path class="cls-4" d="M635.3,173.28q0,13.08-6.59,20.43t-18.22,7.35a24.08,24.08,0,0,1-12.74-3.37,22.23,22.23,0,0,1-8.6-9.67,33.79,33.79,0,0,1-3-14.74q0-13.09,6.54-20.39t18.16-7.3q11.24,0,17.85,7.47T635.3,173.28Zm-40.77,0q0,10.25,4.1,15.62t12.06,5.37q7.95,0,12.08-5.34t4.13-15.65q0-10.22-4.13-15.5t-12.18-5.3q-8,0-12,5.22T594.53,173.28Z"/><path class="cls-4" d="M686.13,200.08V165.47q0-6.56-3-9.77t-9.33-3.22q-8.4,0-12.3,4.54t-3.91,15v28.07h-8.1V146.57h6.59l1.32,7.32h.39a16.48,16.48,0,0,1,7-6.12,22.65,22.65,0,0,1,10-2.18q9.66,0,14.55,4.67t4.88,14.91v34.91Z"/><path class="cls-4" d="M728.17,194.37a25.56,25.56,0,0,0,4.15-.32,28.6,28.6,0,0,0,3.17-.65v6.2a15.06,15.06,0,0,1-3.88,1.05,29.94,29.94,0,0,1-4.61.41q-15.54,0-15.53-16.36V152.87H703.8V149l7.67-3.37,3.42-11.42h4.68v12.4H735.1v6.3H719.57v31.49c0,3.22.77,5.7,2.3,7.42A8,8,0,0,0,728.17,194.37Z"/><path class="cls-4" d="M780.71,185.49q0,7.47-5.57,11.52t-15.62,4.05q-10.65,0-16.61-3.37v-7.52a40.26,40.26,0,0,0,8.28,3.08,34.54,34.54,0,0,0,8.52,1.12q6.35,0,9.77-2a7,7,0,0,0,.7-11.53q-2.7-2.22-10.57-5.25A56.54,56.54,0,0,1,749,170.71a14.36,14.36,0,0,1-4.68-4.71,12.23,12.23,0,0,1-1.54-6.3,12,12,0,0,1,5.32-10.32q5.32-3.8,14.6-3.79a42.59,42.59,0,0,1,16.89,3.52l-2.88,6.59a38.81,38.81,0,0,0-14.6-3.32c-3.84,0-6.73.6-8.69,1.81a5.58,5.58,0,0,0-2.93,5,6.08,6.08,0,0,0,1.1,3.66,10.76,10.76,0,0,0,3.54,2.88,78.48,78.48,0,0,0,9.38,3.95q9.51,3.48,12.86,7A12.31,12.31,0,0,1,780.71,185.49Z"/><text class="cls-5" transform="translate(100.87 65.01)">1</text><text class="cls-5" transform="translate(145.8 100.59)">2</text><text class="cls-5" transform="translate(185.81 60.89)">3</text><text class="cls-5" transform="translate(295.28 60.68)">4</text><text class="cls-5" transform="translate(452.03 61.28)">5</text><text class="cls-5" transform="translate(576.51 60.92)">7</text><text class="cls-5" transform="translate(528.71 100.41)">6</text></svg>