<svg id="Ebene_1" data-name="Ebene 1" xmlns="http://www.w3.org/2000/svg" viewBox="0 0 1200 400"><defs><style>.cls-1,.cls-5{fill:none;stroke-miterlimit:10;stroke-width:4px;}.cls-1{stroke:#000;opacity:0.2;}.cls-1,.cls-2{isolation:isolate;}.cls-3{opacity:0.7;}.cls-4{fill:#005b72;}.cls-5{stroke:#005b72;}.cls-6{fill:#fff;}</style></defs><title>Zeichenfläche 1</title><g id="lines"><line class="cls-1" y1="292" x2="1200" y2="292"/><line class="cls-1" x1="805" y1="185.5" x2="1090" y2="185.5"/><line class="cls-1" x1="94" y1="177" x2="406" y2="177"/><line class="cls-1" x1="364" y1="209" x2="676" y2="209"/></g><g class="cls-2"><path d="M128.7,290H113.54V239.3h-60V290H38.36V178.58H53.52v49.68h60V178.58H128.7Z"/><path d="M211.58,290h-6.14a7.27,7.27,0,0,1-3.27-.63,3.42,3.42,0,0,1-1.63-2.64L199,279.42q-3.12,2.81-6.07,5a35,35,0,0,1-6.22,3.73,32.1,32.1,0,0,1-7,2.29,39.72,39.72,0,0,1-8.2.78A27.84,27.84,0,0,1,163,290a19.54,19.54,0,0,1-7-3.86,18.37,18.37,0,0,1-4.7-6.51,22.81,22.81,0,0,1-1.75-9.33,17.44,17.44,0,0,1,2.56-9,22.56,22.56,0,0,1,8.28-7.68,53.71,53.71,0,0,1,15-5.5A101.87,101.87,0,0,1,198,245.91v-6.18q0-9.22-3.93-14T182.43,221a24.82,24.82,0,0,0-8.52,1.28,32.68,32.68,0,0,0-6,2.88q-2.53,1.59-4.36,2.88a6.31,6.31,0,0,1-3.61,1.28,4.15,4.15,0,0,1-2.45-.74,5.51,5.51,0,0,1-1.67-1.83l-2.49-4.43a44.79,44.79,0,0,1,14.07-9.4,43.34,43.34,0,0,1,16.72-3.12A29.86,29.86,0,0,1,195.88,212a24.17,24.17,0,0,1,8.63,6.07,25.63,25.63,0,0,1,5.28,9.4,39,39,0,0,1,1.79,12.13Zm-35.92-8.48a27.86,27.86,0,0,0,6.69-.74,26.14,26.14,0,0,0,5.71-2.1,30,30,0,0,0,5.13-3.3A44.57,44.57,0,0,0,198,271V254.7a92.56,92.56,0,0,0-16.25,1.21,45.18,45.18,0,0,0-10.89,3.17,15.14,15.14,0,0,0-6.1,4.61,10,10,0,0,0-1.91,5.94,13.24,13.24,0,0,0,1,5.4,10.26,10.26,0,0,0,2.72,3.71,10.74,10.74,0,0,0,4.05,2.12A18.47,18.47,0,0,0,175.66,281.52Z"/><path d="M232.57,290V211.23h8.24a3.54,3.54,0,0,1,3.74,2.88l1,8.09a40.3,40.3,0,0,1,9.75-8.79A23,23,0,0,1,267.87,210q8,0,12.95,4.43a25,25,0,0,1,7.11,12,24.64,24.64,0,0,1,4.32-7.39,25,25,0,0,1,6-5.13,25.38,25.38,0,0,1,7.12-3A31.78,31.78,0,0,1,313,210a29.15,29.15,0,0,1,11.08,2,21.89,21.89,0,0,1,8.24,5.8,25.87,25.87,0,0,1,5.18,9.36,41.63,41.63,0,0,1,1.78,12.72V290H325.48V239.85q0-9.25-4-14T309.7,221a17.48,17.48,0,0,0-6.49,1.21,15.56,15.56,0,0,0-5.4,3.53,16.69,16.69,0,0,0-3.7,5.87,22.75,22.75,0,0,0-1.36,8.21V290H278.91V239.85q0-9.49-3.81-14.15T264,221a17.56,17.56,0,0,0-9.52,2.76,31.25,31.25,0,0,0-8.05,7.5V290Z"/><path d="M360.7,290V175.47h13.92v47.12a40.21,40.21,0,0,1,11.24-9.14,29.69,29.69,0,0,1,14.5-3.46,29,29,0,0,1,12.36,2.57,25.07,25.07,0,0,1,9.41,7.65,37.06,37.06,0,0,1,6,12.6,64.39,64.39,0,0,1,2.1,17.3,54.15,54.15,0,0,1-2.33,16.21,39.07,39.07,0,0,1-6.72,13,31.12,31.12,0,0,1-25,11.78,26.35,26.35,0,0,1-13-2.95,29.57,29.57,0,0,1-9.29-8.24l-.7,7.15a3.32,3.32,0,0,1-3.57,3Zm35.15-69A22.35,22.35,0,0,0,384,224.14a34.12,34.12,0,0,0-9.37,8.79V271a21.56,21.56,0,0,0,8.28,7.23,23.94,23.94,0,0,0,10.15,2.1q11,0,16.95-7.85t5.91-22.39a56.28,56.28,0,0,0-1.36-13.22,25.94,25.94,0,0,0-3.93-9.06,15.34,15.34,0,0,0-6.3-5.17A21.08,21.08,0,0,0,395.85,221Z"/><path d="M459.13,211.23v50.23q0,8.94,4.13,13.84t12.44,4.9a23.76,23.76,0,0,0,11.42-2.88,35.46,35.46,0,0,0,9.88-8V211.23h13.84V290H502.6a3.54,3.54,0,0,1-3.74-2.88l-1.08-8.48a43.29,43.29,0,0,1-11.51,9.14,30.22,30.22,0,0,1-14.62,3.46,28.36,28.36,0,0,1-11.39-2.14,22.55,22.55,0,0,1-8.28-6,25.58,25.58,0,0,1-5-9.41,41.81,41.81,0,0,1-1.68-12.21V211.23Z"/><path d="M533.62,290V211.23h7.93a4.38,4.38,0,0,1,3.11.86,5.25,5.25,0,0,1,1.17,2.95l.93,12.29a35.92,35.92,0,0,1,10-12.87,23.51,23.51,0,0,1,19.86-3.89,20.78,20.78,0,0,1,4.9,2.06L579.72,223a2.33,2.33,0,0,1-2.41,1.95,12.2,12.2,0,0,1-3.34-.74,21.14,21.14,0,0,0-6.3-.74,17.84,17.84,0,0,0-12.09,4.2q-4.86,4.2-8.12,12.21V290Z"/><path d="M622.8,209.91a39.23,39.23,0,0,1,9.6,1.13,30.28,30.28,0,0,1,8.13,3.3h21.38v5.14c0,1.71-1.09,2.79-3.27,3.26L649.7,224a24,24,0,0,1,2.64,11.27,24.35,24.35,0,0,1-2.21,10.46,23.79,23.79,0,0,1-6.14,8,27.75,27.75,0,0,1-9.33,5.14,37.68,37.68,0,0,1-11.86,1.78,39.93,39.93,0,0,1-10.42-1.32,13.17,13.17,0,0,0-3.77,3.46,6.31,6.31,0,0,0-1.28,3.62,4.91,4.91,0,0,0,2.25,4.38,15.72,15.72,0,0,0,6,2.13,50.11,50.11,0,0,0,8.47.64h9.68a53.54,53.54,0,0,1,9.68.87,29.28,29.28,0,0,1,8.48,2.83,15.81,15.81,0,0,1,6,5.43,16.12,16.12,0,0,1,2.26,9,21,21,0,0,1-2.53,9.92,26.69,26.69,0,0,1-7.27,8.54,37.41,37.41,0,0,1-11.58,6,49.48,49.48,0,0,1-15.48,2.24,59.73,59.73,0,0,1-15.12-1.71,35.29,35.29,0,0,1-10.77-4.59,20,20,0,0,1-6.41-6.65,15.78,15.78,0,0,1-2.14-7.91,14.27,14.27,0,0,1,3.69-9.92,25.48,25.48,0,0,1,10.15-6.5,13.85,13.85,0,0,1-5.32-4.15A12.08,12.08,0,0,1,596,266.46a13.86,13.86,0,0,1,1.91-3.61,20,20,0,0,1,3.15-3.42,20.64,20.64,0,0,1,4.35-2.87,24.34,24.34,0,0,1-9.13-8.67,23.65,23.65,0,0,1-3.31-12.63,24.21,24.21,0,0,1,2.22-10.46,23.32,23.32,0,0,1,6.18-8,28.21,28.21,0,0,1,9.45-5.09A38.55,38.55,0,0,1,622.8,209.91ZM647.37,294a7,7,0,0,0-1.64-4.83,10.39,10.39,0,0,0-4.43-2.82,31.68,31.68,0,0,0-6.45-1.47,61,61,0,0,0-7.7-.47h-8.24a30,30,0,0,1-8-1,22.66,22.66,0,0,0-7.19,5.14,10.39,10.39,0,0,0-2.76,7.24,9.5,9.5,0,0,0,1.36,4.94,11.55,11.55,0,0,0,4.16,4,24.26,24.26,0,0,0,7,2.65,50.36,50.36,0,0,0,20-.05,25,25,0,0,0,7.5-2.94,14.09,14.09,0,0,0,4.7-4.52A10.69,10.69,0,0,0,647.37,294ZM622.8,251.51a21.68,21.68,0,0,0,7.42-1.17,15,15,0,0,0,5.41-3.26,13.27,13.27,0,0,0,3.26-5,18.08,18.08,0,0,0,1.09-6.41q0-7.23-4.39-11.51t-12.79-4.28q-8.32,0-12.71,4.28t-4.4,11.51a17.65,17.65,0,0,0,1.13,6.41,13.73,13.73,0,0,0,3.3,5,15,15,0,0,0,5.37,3.26A21.11,21.11,0,0,0,622.8,251.51Z"/><path d="M706.92,210A35.15,35.15,0,0,1,720,212.36a29.29,29.29,0,0,1,10.34,6.84,31.06,31.06,0,0,1,6.81,11,42.73,42.73,0,0,1,2.45,15c0,2.18-.24,3.63-.7,4.36a2.93,2.93,0,0,1-2.65,1.08h-52.4a43.51,43.51,0,0,0,2,13,26.72,26.72,0,0,0,5.13,9.21,20.62,20.62,0,0,0,7.78,5.52,26.62,26.62,0,0,0,10.11,1.83,29.48,29.48,0,0,0,9-1.21,43.08,43.08,0,0,0,6.49-2.6,48.12,48.12,0,0,0,4.55-2.61,6,6,0,0,1,3.15-1.2,3.05,3.05,0,0,1,2.64,1.32l3.89,5.06a26.29,26.29,0,0,1-6.15,5.4,37.79,37.79,0,0,1-7.65,3.77,49.17,49.17,0,0,1-8.44,2.21,50.72,50.72,0,0,1-8.63.74,40.1,40.1,0,0,1-15.05-2.76,33,33,0,0,1-11.89-8.08A37.09,37.09,0,0,1,673,267.06a53.52,53.52,0,0,1-2.8-18,46,46,0,0,1,2.52-15.39,36.3,36.3,0,0,1,7.27-12.4A33.54,33.54,0,0,1,691.53,213,38.1,38.1,0,0,1,706.92,210Zm.31,10.19q-10,0-15.78,5.79T684.3,242h42.84a27.76,27.76,0,0,0-1.33-8.82,19.6,19.6,0,0,0-3.88-6.92,17.31,17.31,0,0,0-6.26-4.51A21.17,21.17,0,0,0,707.23,220.18Z"/><path d="M760.33,290V223.05l-8.7-1a7,7,0,0,1-2.69-1.2,2.84,2.84,0,0,1-1.05-2.38v-5.67h12.44v-7.62a35.07,35.07,0,0,1,1.91-12,24.34,24.34,0,0,1,5.44-8.87,23.2,23.2,0,0,1,8.51-5.48,31.81,31.81,0,0,1,11.2-1.86,30.05,30.05,0,0,1,9.8,1.55l-.31,6.92a1.78,1.78,0,0,1-1.33,1.87,15,15,0,0,1-3.49.31h-2.41a21.35,21.35,0,0,0-6.5.93,12.24,12.24,0,0,0-5,3,13.72,13.72,0,0,0-3.23,5.52,27.5,27.5,0,0,0-1.13,8.48v7.23h22.79v10H774.25V290Z"/><path d="M841.5,210a40.4,40.4,0,0,1,15.59,2.88A33,33,0,0,1,868.91,221a36.1,36.1,0,0,1,7.46,12.79,55.21,55.21,0,0,1,0,33.55,36,36,0,0,1-7.46,12.75,32.51,32.51,0,0,1-11.82,8.13,44.36,44.36,0,0,1-31.18,0,32.79,32.79,0,0,1-11.85-8.13,36.16,36.16,0,0,1-7.54-12.75,54.42,54.42,0,0,1,0-33.55A36.25,36.25,0,0,1,814.06,221a33.24,33.24,0,0,1,11.85-8.16A40.44,40.44,0,0,1,841.5,210Zm0,70.29q11.67,0,17.42-7.82t5.75-21.81q0-14.07-5.75-21.92t-17.42-7.85a24.11,24.11,0,0,0-10.26,2,19.22,19.22,0,0,0-7.27,5.83,26,26,0,0,0-4.35,9.37,55.28,55.28,0,0,0,0,25.07,25.55,25.55,0,0,0,4.35,9.29,19.21,19.21,0,0,0,7.27,5.79A24.11,24.11,0,0,0,841.5,280.28Z"/><path d="M896.08,290V211.23h8.25a3.53,3.53,0,0,1,3.73,2.88l1.09,8.55a44.3,44.3,0,0,1,11.46-9.17,29.87,29.87,0,0,1,14.66-3.5,28.36,28.36,0,0,1,11.39,2.14,22,22,0,0,1,8.24,6.06,26.87,26.87,0,0,1,5,9.45,41.13,41.13,0,0,1,1.71,12.21V290H947.79V239.85q0-8.94-4.08-13.88T931.23,221a23.26,23.26,0,0,0-11.47,3,37.81,37.81,0,0,0-9.84,8v58Z"/><path d="M1006.41,291.24q-9.33,0-14.34-5.21t-5-15v-48.2h-9.48a3.11,3.11,0,0,1-2.1-.74,2.87,2.87,0,0,1-.86-2.29v-5.52l12.91-1.64,3.19-24.33a3,3,0,0,1,1-1.91,3.21,3.21,0,0,1,2.17-.74h7v27.14h22.55v10h-22.55v47.27q0,5,2.41,7.39a8.45,8.45,0,0,0,6.22,2.41,10.93,10.93,0,0,0,3.77-.59,15.46,15.46,0,0,0,2.76-1.28c.78-.47,1.44-.89,2-1.28a2.56,2.56,0,0,1,1.43-.58,2.39,2.39,0,0,1,1.95,1.32l4,6.61a25.7,25.7,0,0,1-8.63,5.24A29.31,29.31,0,0,1,1006.41,291.24Z"/><path d="M1085.64,224.22a3.09,3.09,0,0,1-2.88,1.71,5.39,5.39,0,0,1-2.64-.86c-1-.57-2.19-1.2-3.62-1.9a33.43,33.43,0,0,0-5.09-1.94,24.19,24.19,0,0,0-7-.9,20.57,20.57,0,0,0-6.3.9,15.16,15.16,0,0,0-4.78,2.44,10.93,10.93,0,0,0-3,3.62,9.68,9.68,0,0,0-1,4.47,7.41,7.41,0,0,0,1.75,5.05,15.2,15.2,0,0,0,4.62,3.5,39.77,39.77,0,0,0,6.54,2.61q3.64,1.13,7.5,2.41t7.5,2.84a27.11,27.11,0,0,1,6.53,3.88,17.83,17.83,0,0,1,4.63,5.72,17.54,17.54,0,0,1,1.75,8.12,25.64,25.64,0,0,1-2,10.07,21.89,21.89,0,0,1-5.75,8,27.72,27.72,0,0,1-9.33,5.32,38.21,38.21,0,0,1-12.75,1.95,39.94,39.94,0,0,1-14.93-2.68,38,38,0,0,1-11.35-6.88l3.27-5.29a4.81,4.81,0,0,1,1.47-1.56,4.18,4.18,0,0,1,2.26-.54,5.18,5.18,0,0,1,3,1.09c1,.72,2.3,1.53,3.77,2.41a29.51,29.51,0,0,0,5.37,2.41,24.6,24.6,0,0,0,7.89,1.09,21.61,21.61,0,0,0,7.07-1.05,14.88,14.88,0,0,0,5.06-2.84,11.25,11.25,0,0,0,3-4.12,12.78,12.78,0,0,0,1-5,8.24,8.24,0,0,0-1.75-5.4,14.67,14.67,0,0,0-4.62-3.65,37,37,0,0,0-6.57-2.65c-2.46-.75-5-1.54-7.54-2.37s-5.08-1.77-7.55-2.84a26.41,26.41,0,0,1-6.57-4,18.17,18.17,0,0,1-4.62-5.95,19.18,19.18,0,0,1-1.75-8.59,20.85,20.85,0,0,1,1.87-8.67,21.17,21.17,0,0,1,5.44-7.31,26.67,26.67,0,0,1,8.78-5,35.05,35.05,0,0,1,11.9-1.87,37.75,37.75,0,0,1,14,2.45,32.88,32.88,0,0,1,10.69,6.73Z"/></g><g class="cls-3"><circle class="cls-4" cx="505" cy="72" r="40"/><line class="cls-5" x1="505" y1="204" x2="505" y2="53.5"/><circle class="cls-4" cx="505" cy="209" r="12"/></g><g class="cls-2"><path class="cls-6" d="M517.32,62.25A9.8,9.8,0,0,1,515,69a11.52,11.52,0,0,1-6.52,3.48v.24q5.16.64,7.65,3.28a9.64,9.64,0,0,1,2.49,6.91q0,6.12-4.25,9.42t-12.07,3.3a34.26,34.26,0,0,1-6.23-.52,21.28,21.28,0,0,1-5.49-1.8V88.64a28,28,0,0,0,11.9,2.82q11.1,0,11.1-8.71,0-7.78-12.25-7.79h-4.22V70.77h4.28a12.9,12.9,0,0,0,7.94-2.21,7.27,7.27,0,0,0,2.93-6.14,6.06,6.06,0,0,0-2.15-4.92,8.91,8.91,0,0,0-5.85-1.79,18.3,18.3,0,0,0-5.3.76,23.59,23.59,0,0,0-5.68,2.82L490.83,56a20.52,20.52,0,0,1,6.08-3.27,22.19,22.19,0,0,1,7.26-1.19q6.24,0,9.69,2.86A9.61,9.61,0,0,1,517.32,62.25Z"/></g><g class="cls-3"><circle class="cls-4" cx="623" cy="72.3" r="40"/><line class="cls-5" x1="623" y1="204.3" x2="623" y2="53.8"/><circle class="cls-4" cx="623" cy="209.3" r="12"/></g><g class="cls-2"><path class="cls-6" d="M639,85.49h-6.36v9.84h-4.65V85.49H607.11V81.24l20.33-29h5.15v28.8H639Zm-11-4.42V66.83c0-2.8.09-5.95.29-9.47H628A44,44,0,0,1,625.36,62L612,81.07Z"/></g><g class="cls-3"><circle class="cls-4" cx="930" cy="234" r="30"/><circle class="cls-4" cx="931" cy="73" r="40"/><line class="cls-5" x1="931" y1="223.5" x2="931" y2="54"/></g><g class="cls-2"><path class="cls-6" d="M916.27,76.69q0-12.63,4.91-18.88t14.52-6.26a19.31,19.31,0,0,1,5.21.56V56.3a16.59,16.59,0,0,0-5.15-.73q-6.88,0-10.52,4.29t-4,13.49h.36q3.21-5,10.19-5,5.78,0,9.1,3.49t3.32,9.46q0,6.67-3.64,10.5a13,13,0,0,1-9.86,3.83,12.67,12.67,0,0,1-10.55-5Q916.27,85.6,916.27,76.69Zm14.39,14.77a8.14,8.14,0,0,0,6.46-2.63q2.29-2.62,2.3-7.57a9.75,9.75,0,0,0-2.14-6.68q-2.14-2.43-6.39-2.43a10.8,10.8,0,0,0-4.83,1.08,9,9,0,0,0-3.5,3,6.92,6.92,0,0,0-1.31,4,13.58,13.58,0,0,0,1.18,5.62,9.89,9.89,0,0,0,3.32,4.13A8.27,8.27,0,0,0,930.66,91.46Z"/></g><g class="cls-3"><circle class="cls-4" cx="721" cy="72" r="40"/><line class="cls-5" x1="794.3" y1="166.2" x2="745" y2="104"/><line class="cls-5" x1="794" y1="206" x2="794" y2="165"/><circle class="cls-4" cx="794" cy="217" r="12"/></g><g class="cls-2"><path class="cls-6" d="M720.17,67.84q6.76,0,10.64,3.35a11.52,11.52,0,0,1,3.89,9.19q0,6.65-4.24,10.43t-11.67,3.78q-7.24,0-11-2.32V87.58a16.87,16.87,0,0,0,5.1,2.07,25,25,0,0,0,6,.75c3.43,0,6.11-.81,8-2.44a8.73,8.73,0,0,0,2.86-7q0-9-11-9a43.26,43.26,0,0,0-7.44.85l-2.52-1.61,1.61-20h21.3v4.48H714.54l-1.08,12.86A34,34,0,0,1,720.17,67.84Z"/></g><g class="cls-3"><circle class="cls-4" cx="368" cy="73" r="40"/><line class="cls-5" x1="368" y1="170.5" x2="368" y2="72.5"/><circle class="cls-4" cx="368" cy="173" r="12"/></g><g class="cls-2"><path class="cls-6" d="M381.93,95H353.78V90.81l11.28-11.34A81.59,81.59,0,0,0,371.85,72a18.51,18.51,0,0,0,2.46-4.33,12.38,12.38,0,0,0,.82-4.55,7.19,7.19,0,0,0-2.08-5.43,8,8,0,0,0-5.77-2,14.61,14.61,0,0,0-5,.88,20.1,20.1,0,0,0-5.32,3.2l-2.58-3.32a19.77,19.77,0,0,1,12.89-4.92q6,0,9.47,3.09A10.65,10.65,0,0,1,380.11,63,16.1,16.1,0,0,1,377.83,71q-2.28,4-8.56,10.07l-9.37,9.17v.24h22Z"/></g><g class="cls-3"><circle class="cls-4" cx="207" cy="283" r="12"/><circle class="cls-4" cx="207" cy="73" r="40"/><line class="cls-5" x1="207" y1="271.5" x2="207" y2="113"/></g><g class="cls-2"><path class="cls-6" d="M210.79,95h-4.74V64.47q0-3.81.23-7.2c-.41.41-.87.84-1.37,1.28s-2.84,2.36-7,5.72l-2.58-3.34,11.34-8.76h4.1Z"/></g></svg>