<svg xmlns="http://www.w3.org/2000/svg" viewBox="0 0 1200 400"><defs><style>.cls-1,.cls-4{fill:none;stroke-miterlimit:10;stroke-width:4px;}.cls-1{stroke:#000;opacity:0.2;}.cls-2{opacity:0.7;}.cls-3{fill:#005b72;}.cls-4{stroke:#005b72;}.cls-5{fill:#fff;}</style></defs><title>font-characteristics</title><g id="lines"><line class="cls-1" y1="292" x2="1200" y2="292"/><line class="cls-1" x1="710" y1="180" x2="1090" y2="180"/><line class="cls-1" x1="94" y1="169" x2="406" y2="169"/></g><g id="font"><path d="M110.68,171h7.65a2,2,0,0,1,2.21,2.21V287.79a2,2,0,0,1-2.21,2.21h-7.65a2,2,0,0,1-2.21-2.21V236.28a.75.75,0,0,0-.85-.85H53.73a.75.75,0,0,0-.85.85v51.51A2,2,0,0,1,50.67,290H43a2,2,0,0,1-2.21-2.21V173.21A2,2,0,0,1,43,171h7.65a2,2,0,0,1,2.21,2.21V224a.75.75,0,0,0,.85.84h53.89a.75.75,0,0,0,.85-.84V173.21A2,2,0,0,1,110.68,171Z"/><path d="M203.07,210.44q8.42,7.81,8.42,20.74v56.61a2,2,0,0,1-2.21,2.21h-7.65a2,2,0,0,1-2.21-2.21v-6.12a.69.69,0,0,0-.34-.68c-.23-.12-.46,0-.68.34a29.25,29.25,0,0,1-11.48,7.47,43,43,0,0,1-15,2.56q-11.91,0-20-6.12t-8.07-18.7q0-12.75,9.26-20.15T178.85,239h19.72a.76.76,0,0,0,.85-.86v-6.28q0-8.67-4.85-13.69t-15-5q-8,0-13.09,3.05a13.44,13.44,0,0,0-6.46,8.5,2,2,0,0,1-2.55,1.71l-8.33-1c-1.48-.22-2.16-.85-2-1.86q1.69-9.36,10.45-15.14t21.85-5.77Q194.66,202.62,203.07,210.44ZM192,276q7.39-5,7.4-13.51V249.37a.75.75,0,0,0-.85-.85H180.72q-11.22,0-18,4.59a14.54,14.54,0,0,0-6.8,12.75q0,7.47,5.27,11.3T174.6,281A30.32,30.32,0,0,0,192,276Z"/><path d="M343.66,210.44q7.39,7.65,7.39,20.91v56.44a2,2,0,0,1-2.21,2.21h-7.48a2,2,0,0,1-2.21-2.21V233.72q0-9.34-5.35-14.87t-14-5.52q-9,0-14.53,5.44t-5.53,14.61v54.41A2,2,0,0,1,297.5,290h-7.65a2,2,0,0,1-2.21-2.21V233.72q0-9.34-5.27-14.87t-14.11-5.52q-9,0-14.36,5.44t-5.36,14.61v54.41a2,2,0,0,1-2.21,2.21h-7.65a2,2,0,0,1-2.21-2.21v-81.6a2,2,0,0,1,2.21-2.22h7.65a2,2,0,0,1,2.21,2.22v5.94a.69.69,0,0,0,.34.68c.23.12.45,0,.68-.34a22.51,22.51,0,0,1,9.52-7.3A33.6,33.6,0,0,1,272,202.79a29.71,29.71,0,0,1,15,3.57,23.2,23.2,0,0,1,9.52,10c.34.68.68.74,1,.17A23.92,23.92,0,0,1,308,206.19a34.1,34.1,0,0,1,15.47-3.4Q336.26,202.79,343.66,210.44Z"/><path d="M445.23,247q0,13.93-2.38,21.59a31.15,31.15,0,0,1-11.13,16.66q-8.09,6.11-20,6.12a27.42,27.42,0,0,1-12.32-2.73,25.7,25.7,0,0,1-9.27-7.64.7.7,0,0,0-.68-.26c-.23.06-.34.26-.34.6v6.46a2,2,0,0,1-2.21,2.21h-7.65a2,2,0,0,1-2.21-2.21V173.21a2,2,0,0,1,2.21-2.21h7.65a2,2,0,0,1,2.21,2.21v39.26a.7.7,0,0,0,.34.69c.23.11.45,0,.68-.35a24.86,24.86,0,0,1,9.35-7.56,28.38,28.38,0,0,1,12.24-2.63q12.08,0,20.23,6.2a31.42,31.42,0,0,1,11.22,17.09Q445.23,232.87,445.23,247Zm-12.75,12.49a89,89,0,0,0,.68-12.49,70.37,70.37,0,0,0-.93-13,29.85,29.85,0,0,0-3-8.42,19.32,19.32,0,0,0-7.14-9,20.21,20.21,0,0,0-11.73-3.39,18.09,18.09,0,0,0-11.13,3.48,19.2,19.2,0,0,0-6.72,9.27,28.66,28.66,0,0,0-2.38,8.24,94.62,94.62,0,0,0-.68,12.84,92.64,92.64,0,0,0,.68,12.75,30.12,30.12,0,0,0,2.21,8,21,21,0,0,0,6.8,9.53,18.05,18.05,0,0,0,11.39,3.56,21.29,21.29,0,0,0,12.33-3.56,18.61,18.61,0,0,0,7.22-9.7A28.53,28.53,0,0,0,432.48,259.48Z"/><path d="M523.43,204h7.65a2,2,0,0,1,2.21,2.22v81.6a2,2,0,0,1-2.21,2.21h-7.65a2,2,0,0,1-2.21-2.21v-6.46a.7.7,0,0,0-.34-.69c-.23-.11-.45,0-.68.35q-7.31,10.2-22.44,10.2a34.2,34.2,0,0,1-15-3.32,25.93,25.93,0,0,1-10.88-9.6,27.62,27.62,0,0,1-4-15.14V206.19a2,2,0,0,1,2.21-2.22h7.65a2,2,0,0,1,2.21,2.22v53.37q0,9.7,5.44,15.39t14.79,5.69q9.69,0,15.39-5.77t5.69-15.31V206.19A2,2,0,0,1,523.43,204Z"/><path d="M604.35,205.17a2,2,0,0,1,1.19,2.71l-1.7,7.49c-.34,1.35-1.25,1.81-2.72,1.35a25.26,25.26,0,0,0-8.33-.84,20.21,20.21,0,0,0-14.62,6.54q-5.77,6.21-5.78,15.72v49.65a2,2,0,0,1-2.21,2.21h-7.65a2,2,0,0,1-2.21-2.21v-81.6a2,2,0,0,1,2.21-2.22h7.65a2,2,0,0,1,2.21,2.22v9.52c0,.45.09.7.26.76s.36-.09.59-.43a26.59,26.59,0,0,1,9.1-9.51A23.62,23.62,0,0,1,595,203.12,19.22,19.22,0,0,1,604.35,205.17Z"/><path d="M675.41,204h7.65a2,2,0,0,1,2.21,2.22v80.92q0,19-11,27.88t-30.09,8.84c-2.38,0-4.19-.06-5.44-.17a2.14,2.14,0,0,1-2.21-2.38l.34-6.8c0-1.59.74-2.27,2.21-2q18,.84,26.1-5.27t8.07-20.4v-6a.69.69,0,0,0-.34-.68c-.23-.11-.45,0-.68.34q-7.81,10-22.1,10a33.58,33.58,0,0,1-19.63-5.95A28.6,28.6,0,0,1,619,267.72q-2-7-2-20.73,0-7.49.43-12.58a39.12,39.12,0,0,1,1.78-9.19,31.75,31.75,0,0,1,11.05-16.4,30.36,30.36,0,0,1,19.21-6.2q14.79,0,22.78,9.68c.23.34.45.46.68.34a.68.68,0,0,0,.34-.68v-5.77A2,2,0,0,1,675.41,204ZM673,257.7c.11-2.5.17-6.12.17-10.89,0-5.77-.06-9.66-.17-11.64a27.72,27.72,0,0,0-.85-5.53,20.28,20.28,0,0,0-6.71-11.81q-5.36-4.68-13.52-4.67a20.42,20.42,0,0,0-13.51,4.59,24,24,0,0,0-7.74,11.89q-1.69,5.45-1.7,17,0,12.42,1.7,17.17A21.23,21.23,0,0,0,652,280.3q8.32,0,13.69-4.59A19.84,19.84,0,0,0,672.35,264,42.26,42.26,0,0,0,673,257.7Z"/><path d="M757.77,277.5a22.61,22.61,0,0,0,8.59-9.26,2.07,2.07,0,0,1,1.19-1.2,1.88,1.88,0,0,1,1.7.17l4.93,2.73c1.36.79,1.7,1.75,1,2.89A31.67,31.67,0,0,1,763,286.34q-8.16,5-19.38,5-11.9,0-20.06-5.61a31.07,31.07,0,0,1-11.73-15.64q-3.22-8.5-3.23-23.47,0-7.3.25-11.64a39.37,39.37,0,0,1,1.28-8.07,31.52,31.52,0,0,1,11.64-17.68q8.76-6.63,21.17-6.63,14.79,0,23.2,7.65t10.8,21.59q1,5.43,1,17a2,2,0,0,1-2.21,2.2h-54.4a.76.76,0,0,0-.85.86q0,8.49,1,12.41a20.84,20.84,0,0,0,7.9,12.15q6,4.5,15.22,4.51A26.35,26.35,0,0,0,757.77,277.5Zm-28.81-60a20.22,20.22,0,0,0-7.14,11.64q-1,3.41-1.36,11.57a.75.75,0,0,0,.85.84H765a.75.75,0,0,0,.85-.84,81.59,81.59,0,0,0-1-10.89,21.46,21.46,0,0,0-7.57-12.15q-5.68-4.5-14.36-4.5Q734.4,213.16,729,217.49Z"/><path d="M822,185.7q-3.41,4.17-3.4,14.2v3.22a.75.75,0,0,0,.85.85h18.36a2,2,0,0,1,2.21,2.22v6.62a2,2,0,0,1-2.21,2.22H819.4a.75.75,0,0,0-.85.85v71.91a2,2,0,0,1-2.21,2.21h-7.48a2,2,0,0,1-2.21-2.21V215.88a.75.75,0,0,0-.85-.85H795.09a2,2,0,0,1-2.21-2.22v-6.62a2,2,0,0,1,2.21-2.22H805.8a.75.75,0,0,0,.85-.85v-3.9q0-10.54,2.38-16.58a16,16,0,0,1,8.25-8.84q5.87-2.81,16.4-2.8h4.42a2,2,0,0,1,2.21,2.21v6.12a2,2,0,0,1-2.21,2.21h-3.4Q825.36,181.54,822,185.7Z"/><path d="M865,285.06a32.35,32.35,0,0,1-12.15-17.34q-2.39-7.82-2.38-20.91,0-12.92,2.21-20.73a32.33,32.33,0,0,1,12.15-17.17q8.76-6.3,21.34-6.29,12.24,0,21,6.29a31.47,31.47,0,0,1,12,17q2.37,8.16,2.38,20.9,0,13.09-2.38,20.91A32.36,32.36,0,0,1,907,285.06q-8.74,6.3-20.82,6.3Q873.79,291.36,865,285.06Zm35.11-8.75A22.17,22.17,0,0,0,908,264.16q1.37-5.45,1.36-17.17,0-12.24-1.36-17.18a21.14,21.14,0,0,0-7.74-12.15,22.88,22.88,0,0,0-14.36-4.5,21.61,21.61,0,0,0-21.76,16.65q-1.36,4.94-1.36,17.18t1.36,17.17a21.11,21.11,0,0,0,7.73,12.15,22.91,22.91,0,0,0,14.37,4.5A22,22,0,0,0,900.15,276.31Z"/><path d="M1003.25,210.78q8.07,8,8.08,21.42v55.59a2,2,0,0,1-2.21,2.21h-7.65a2,2,0,0,1-2.21-2.21V234.58q0-9.53-5.61-15.39T979,213.33q-8.67,0-14.37,4.92a19.07,19.07,0,0,0-6.54,12.93v56.61a2,2,0,0,1-2.21,2.21h-7.65a2,2,0,0,1-2.21-2.21v-81.6a2,2,0,0,1,2.21-2.22h7.65a2,2,0,0,1,2.21,2.22v6.28a.9.9,0,0,0,.34.77c.22.17.39.09.51-.25q7.47-10.2,22.78-10.2Q995.18,202.79,1003.25,210.78Z"/><path d="M1074.06,214h-18.53a.76.76,0,0,0-.86.86V264.5q0,8.16,3.66,11.47t11.48,3.32h3.73a2,2,0,0,1,2.21,2.21v5.95a2.13,2.13,0,0,1-2.21,2.38h-5.77q-12.24,0-18.53-4.59t-6.29-17V214.86a.76.76,0,0,0-.86-.86h-9.68a2,2,0,0,1-2.21-2.21v-5.6a2,2,0,0,1,2.21-2.22h9.68a.76.76,0,0,0,.86-.85v-19a2,2,0,0,1,2.21-2.2h7.3a2,2,0,0,1,2.21,2.2v19a.76.76,0,0,0,.86.85h18.53a2,2,0,0,1,2.21,2.22v5.6A2,2,0,0,1,1074.06,214Z"/><path d="M1110.86,287.79a27.26,27.26,0,0,1-11.39-8.17,18,18,0,0,1-4-11.38v-1.53a2,2,0,0,1,2.22-2.21H1105a2.77,2.77,0,0,1,1.61.42,1.29,1.29,0,0,1,.6,1.11v1.52q0,5.61,5.78,9.78t14.62,4.17q8.84,0,14.27-4t5.45-10.12a9.43,9.43,0,0,0-2.72-7,19,19,0,0,0-6.64-4.25q-3.9-1.55-11.72-3.92a120,120,0,0,1-15.64-5.44,29.49,29.49,0,0,1-10.37-7.56,18,18,0,0,1-4.25-12.32,20.61,20.61,0,0,1,8.58-17.35q8.58-6.45,22.52-6.46a42,42,0,0,1,16.58,3.07,25.7,25.7,0,0,1,11.13,8.41,19.82,19.82,0,0,1,3.91,12,2,2,0,0,1-2.21,2.21h-7c-1.48,0-2.21-.39-2.21-1.18v-1q0-5.78-5.53-9.69t-14.88-3.9q-8.65,0-13.93,3.48a10.93,10.93,0,0,0-5.28,9.61,9.78,9.78,0,0,0,5,8.84q5,3.06,15.73,6.12a140.47,140.47,0,0,1,16,5.26,28.9,28.9,0,0,1,10.53,7.49q4.42,4.92,4.43,12.75a21.22,21.22,0,0,1-8.59,17.67q-8.58,6.63-23,6.64A43.94,43.94,0,0,1,1110.86,287.79Z"/></g><g id="caption"><g class="cls-2"><circle class="cls-3" cx="640" cy="318" r="20"/><circle class="cls-3" cx="640" cy="72" r="40"/><line class="cls-4" x1="640" y1="303" x2="640" y2="71.5"/></g><path class="cls-5" d="M652.32,61.25A9.8,9.8,0,0,1,650,68a11.52,11.52,0,0,1-6.52,3.48v.24q5.16.64,7.65,3.28a9.64,9.64,0,0,1,2.49,6.91q0,6.12-4.25,9.42t-12.07,3.3a34.26,34.26,0,0,1-6.23-.52,21.28,21.28,0,0,1-5.49-1.8V87.64a28,28,0,0,0,11.9,2.82q11.1,0,11.1-8.71,0-7.78-12.25-7.79h-4.22V69.77h4.28a12.9,12.9,0,0,0,7.94-2.21,7.27,7.27,0,0,0,2.93-6.14,6.06,6.06,0,0,0-2.15-4.92,8.91,8.91,0,0,0-5.85-1.79,18.3,18.3,0,0,0-5.3.76,23.59,23.59,0,0,0-5.68,2.82L625.83,55a20.52,20.52,0,0,1,6.08-3.27,22.19,22.19,0,0,1,7.26-1.19q6.24,0,9.69,2.86A9.61,9.61,0,0,1,652.32,61.25Z"/><g class="cls-2"><circle class="cls-3" cx="838" cy="176" r="20"/><circle class="cls-3" cx="838" cy="72" r="40"/><line class="cls-4" x1="838" y1="171" x2="838" y2="71.5"/></g><path class="cls-5" d="M854,84.16h-6.36V94h-4.65V84.16H822.11V79.91l20.33-29h5.15v28.8H854Zm-11-4.43V65.49c0-2.79.09-5.94.29-9.46H843a44,44,0,0,1-2.64,4.66L827,79.73Z"/><g class="cls-2"><circle class="cls-3" cx="383" cy="174" r="20"/><circle class="cls-3" cx="383" cy="72" r="40"/><line class="cls-4" x1="383" y1="179" x2="383" y2="71.5"/></g><path class="cls-5" d="M396.93,94H368.78V89.81l11.28-11.34A81.59,81.59,0,0,0,386.85,71a18.51,18.51,0,0,0,2.46-4.33,12.38,12.38,0,0,0,.82-4.55,7.19,7.19,0,0,0-2.08-5.43,8,8,0,0,0-5.77-2,14.61,14.61,0,0,0-5,.88,20.1,20.1,0,0,0-5.32,3.2l-2.58-3.32a19.77,19.77,0,0,1,12.89-4.92q6,0,9.47,3.09A10.65,10.65,0,0,1,395.11,62,16.1,16.1,0,0,1,392.83,70q-2.28,4-8.56,10.07l-9.37,9.17v.24h22Z"/><g class="cls-2"><circle class="cls-3" cx="156" cy="218" r="20"/><circle class="cls-3" cx="156" cy="72" r="40"/><line class="cls-4" x1="156" y1="226" x2="156" y2="71.5"/></g><path class="cls-5" d="M159.79,94h-4.74V63.47q0-3.81.23-7.2c-.41.41-.87.84-1.37,1.28s-2.84,2.36-7,5.72l-2.58-3.34,11.34-8.76h4.1Z"/><g class="cls-2"><circle class="cls-3" cx="1152" cy="222" r="20"/><circle class="cls-3" cx="1152" cy="72" r="40"/><line class="cls-4" x1="1152" y1="219" x2="1152" y2="71.5"/></g><path class="cls-5" d="M1151.17,67.84q6.76,0,10.64,3.35a11.52,11.52,0,0,1,3.89,9.19q0,6.65-4.24,10.43t-11.67,3.78q-7.24,0-11-2.32V87.58a16.87,16.87,0,0,0,5.1,2.07,25,25,0,0,0,6,.75c3.43,0,6.11-.81,8-2.44a8.73,8.73,0,0,0,2.86-7q0-9-11-9a43.26,43.26,0,0,0-7.44.85l-2.52-1.61,1.61-20h21.3v4.48h-17.14l-1.08,12.86A34,34,0,0,1,1151.17,67.84Z"/></g></svg>