<?xml version="1.0" encoding="utf-8"?>
<!-- Generator: Adobe Illustrator 22.0.1, SVG Export Plug-In . SVG Version: 6.00 Build 0)  -->
<svg version="1.1" xmlns="http://www.w3.org/2000/svg" xmlns:xlink="http://www.w3.org/1999/xlink" x="0px" y="0px"
	 viewBox="0 0 1275.9 400" style="enable-background:new 0 0 1275.9 400;" xml:space="preserve">
<style type="text/css">
	.st0{opacity:0.2;fill:none;stroke:#000000;stroke-width:4;stroke-miterlimit:10;}
	.st1{opacity:0.7;}
	.st2{fill:#005B72;}
	.st3{fill:#FFFFFF;}
	.st4{display:none;}
</style>
<g id="lines">
	<line class="st0" x1="0" y1="292" x2="1200" y2="292"/>
	<line class="st0" x1="805" y1="191.5" x2="1090" y2="191.5"/>
	<line class="st0" x1="94" y1="183" x2="406" y2="183"/>
</g>
<g id="caption">
	<g class="st1">
		<g>
			<circle class="st2" cx="400" cy="68" r="40"/>
		</g>
		<g>
			<rect x="398" y="67.5" class="st2" width="4" height="139.5"/>
		</g>
	</g>
	<g>
		<path class="st3" d="M398.4,64.4c5.9,0,9.4-3.2,9.4-7.7V56c0-4.7-3.5-7.5-8.5-7.5c-4.9,0-7.7,2.3-9.5,5.6l-2.7-1.9
			c2-3.6,5.7-6.8,12.2-6.8c7,0,12.2,3.9,12.2,10.5c0,5.6-3.6,8.8-8.3,9.9V66c5,0.8,9.1,4.3,9.1,10.6c0,7.3-5.4,12.1-13.7,12.1
			c-6.8,0-10.7-2.9-13.3-6.8l2.7-2c2.3,3.6,5.3,5.8,10.6,5.8c6.1,0,9.9-3.3,9.9-8.6v-1c0-5.2-3.5-8.5-10-8.5h-5.3v-3.1H398.4z"/>
	</g>
	<g id="Layer_4">
	</g>
	<g>
		<g class="st1">
			<g>
				<circle class="st2" cx="654" cy="207" r="20"/>
			</g>
			<g>
				<circle class="st2" cx="654" cy="68" r="40"/>
			</g>
			<g>
				<rect x="652" y="67.5" class="st2" width="4" height="139"/>
			</g>
		</g>
		<g>
			<path class="st3" d="M659.5,90v-8.8h-21.1v-3.2l19.5-29.9h5v30.2h6.5v2.9h-6.5V90H659.5z M641.6,78.3h17.9V51.2h-0.2L641.6,78.3z
				"/>
		</g>
	</g>
	<g>
		<g class="st1">
			<g>
				<circle class="st2" cx="556" cy="224" r="20"/>
			</g>
			<g>
				<circle class="st2" cx="556" cy="68" r="40"/>
			</g>
			<g>
				<rect x="554" y="67.5" class="st2" width="4" height="139"/>
			</g>
		</g>
		<g>
			<path class="st3" d="M548.7,90l17.1-38.8h-20.3v8.6h-3.2V48.1h27.2v3.2L552.6,90H548.7z"/>
		</g>
	</g>
	<g>
		<g class="st1">
			<g>
				<circle class="st2" cx="737" cy="277" r="20"/>
			</g>
			<g>
				<circle class="st2" cx="737" cy="68" r="40"/>
			</g>
			<g>
				<rect x="735" y="67.5" class="st2" width="4" height="209"/>
			</g>
		</g>
		<g>
			<path class="st3" d="M748.6,51.2h-19l-1.3,17.6l0.4,0.1c2.2-2.9,4.8-4.4,9.2-4.4c7.4,0,12.4,4.8,12.4,12.8
				c0,8.1-5.2,13.5-13.6,13.5c-6.6,0-10.5-2.9-13.1-6.8l2.8-2c2.3,3.6,5.2,5.8,10.4,5.8c6.2,0,9.8-3.8,9.8-9.6v-1
				c0-5.8-3.4-9.5-9.7-9.5c-4.4,0-6.5,1.5-8.6,3.8l-3.1-0.5l1.5-22.7h21.9V51.2z"/>
		</g>
	</g>
	<g>
		<g class="st1">
			<g>
				<circle class="st2" cx="1003" cy="182" r="20"/>
			</g>
			<g>
				<circle class="st2" cx="1003" cy="68" r="40"/>
			</g>
			<g>
				<rect x="1001" y="67.5" class="st2" width="4" height="114"/>
			</g>
		</g>
		<g>
			<path class="st3" d="M989.4,75.4c0-12.9,7.9-22.3,15.7-27.2h4.7c-9.4,6.4-14.5,12.5-16.6,22.3l0.2,0.1c2-3.7,5.5-6.1,10.6-6.1
				c7.5,0,12.6,4.9,12.6,12.8c0,8.1-5.3,13.6-13.5,13.6C994.1,90.7,989.4,84.5,989.4,75.4z M1012.9,78.1V77c0-5.8-3.7-9.6-9.9-9.6
				c-6.3,0-10,3.8-10,9.6v1.1c0,5.8,3.7,9.6,10,9.6C1009.2,87.7,1012.9,83.9,1012.9,78.1z"/>
		</g>
	</g>
	<g>
		<g class="st1">
			<g>
				<circle class="st2" cx="783" cy="177" r="20"/>
			</g>
			<g>
				<circle class="st2" cx="824" cy="68" r="40"/>
			</g>
			<g>
				<polygon class="st2" points="794,167.7 792,164.3 822,145.9 822,67.5 826,67.5 826,148.1 				"/>
			</g>
		</g>
		<g>
			<path class="st3" d="M809.7,78.8c0-5.8,3.4-9.4,8.8-10.6v-0.4c-4.6-1.3-7.4-4.9-7.4-9.9c0-6.4,4.9-10.5,13-10.5s13,4.1,13,10.5
				c0,5-2.9,8.6-7.4,9.9v0.4c5.3,1.2,8.8,4.8,8.8,10.6c0,6.9-5.1,11.9-14.3,11.9S809.7,85.7,809.7,78.8z M834.6,79.3v-1.4
				c0-5.2-4-8.4-10.6-8.4c-6.5,0-10.6,3.2-10.6,8.4v1.4c0,5.1,4.1,8.4,10.6,8.4C830.5,87.7,834.6,84.4,834.6,79.3z M833.3,59V58
				c0-4.6-3.5-7.5-9.3-7.5s-9.3,2.9-9.3,7.5V59c0,4.6,3.5,7.5,9.3,7.5C829.8,66.5,833.3,63.7,833.3,59z"/>
		</g>
	</g>
	<g>
		<g class="st1">
			<g>
				<circle class="st2" cx="155" cy="215" r="20"/>
			</g>
			<g>
				<circle class="st2" cx="155" cy="68" r="40"/>
			</g>
			<g>
				<rect x="153" y="67.5" class="st2" width="4" height="130.5"/>
			</g>
		</g>
		<g>
			<path class="st3" d="M168.9,90h-27.2v-3.7l14.8-14c4.1-3.8,6.8-7.7,6.8-12.1V59c0-5.2-3-8.5-8.7-8.5c-5.6,0-8.5,3-9.9,7.6
				l-3.2-1.1c1.6-5.1,5.4-9.6,13.1-9.6c8,0,12.4,4.8,12.4,11.9c0,5.9-3.2,10.5-8.4,15.2l-13.2,12.3h23.5V90z"/>
		</g>
	</g>
	<g>
		<g class="st1">
			<g>
				<circle class="st2" cx="46" cy="180" r="20"/>
			</g>
			<g>
				<circle class="st2" cx="46" cy="68" r="40"/>
			</g>
			<g>
				<rect x="44" y="67.5" class="st2" width="4" height="130.5"/>
			</g>
		</g>
		<g>
			<path class="st3" d="M33.4,90v-3.1h12.5V50.8h-0.3L34.1,61l-2-2.3L44,48.1h5.5v38.8h11.7V90H33.4z"/>
		</g>
	</g>
	<g class="st1">
		<g>
			<path class="st2" d="M400.5,214c-9,0-15.6,2.7-19.5,8.2c-4,5.5-6,14.7-6,27.6c0,13,2,22.2,6.1,27.8c4.1,5.6,10.7,8.4,19.7,8.4
				c8.1,0,14.2-3.1,18.2-9.4c4-6.3,6-15.2,6-27c0-12-2-20.9-6-26.8C415,216.9,408.9,214,400.5,214z"/>
		</g>
	</g>
</g>
<g id="grid" class="st4">
</g>
<g id="font">
	<g>
		<path d="M107.2,240.9H52.4V290H39.3V181.5h13.1v47.9h54.9v-47.9h13.1V290h-13.1V240.9z"/>
		<path d="M206.3,290c-9.2,0-12.9-5.6-13.8-13.1h-0.8c-3.4,9.8-12,14.9-23.2,14.9c-16.9,0-26.9-9.3-26.9-24.3
			c0-15.1,10.9-23.5,34.2-23.5h15.9v-7.9c0-11.4-6.2-17.6-19-17.6c-9.6,0-16,4.7-20.4,12l-7.5-7c4.4-8.6,14-15.7,28.5-15.7
			c19.3,0,30.8,10.1,30.8,27.1v44.2h9.2V290H206.3z M191.7,266.7v-13.2h-16.5c-14.2,0-20.5,4.4-20.5,12.1v3.3
			c0,7.9,6.2,12.4,15.9,12.4C182.8,281.3,191.7,274.9,191.7,266.7z"/>
		<path d="M231,290v-80.2h12.4v13.1h0.6c3.6-8.2,9.2-14.9,21.6-14.9c10.6,0,20.2,4.8,24.6,16.3h0.3c3-8.7,10.7-16.3,24.4-16.3
			c16.3,0,26.1,11.2,26.1,30.6V290h-12.4v-49.3c0-14.2-5.4-21.6-17.6-21.6c-9.8,0-18.8,5-18.8,15.2V290h-12.4v-49.3
			c0-14.3-5.4-21.6-17.3-21.6c-9.8,0-19.1,5-19.1,15.2V290H231z"/>
		<path d="M366.8,174.9h12.4v47.9h0.6c4.2-10.1,12.4-14.9,23.5-14.9c20.1,0,32.7,16.3,32.7,42c0,25.7-12.6,42-32.7,42
			c-11,0-18.7-5-23.5-14.9h-0.6V290h-12.4V174.9z M422.6,256.7V243c0-14.3-8.7-23.9-22.7-23.9c-11.4,0-20.7,6.5-20.7,15.4v29.9
			c0,10.4,9.3,16.3,20.7,16.3C413.9,280.7,422.6,271,422.6,256.7z"/>
		<path d="M506.4,276.9h-0.6c-3.1,7.6-9.2,14.9-22.5,14.9c-16.5,0-27.1-11.2-27.1-30.6v-51.5h12.4v49.3c0,14.3,6.4,21.6,18.3,21.6
			c9.8,0,19.4-4.8,19.4-15.4v-55.5h12.4V290h-12.4V276.9z"/>
		<path d="M545.3,290v-80.2h12.4v14.8h0.8c2.8-7.6,10.1-14.8,23.2-14.8h4.8v12.4h-7.3c-13.4,0-21.5,5.8-21.5,13.4V290H545.3z"/>
		<path d="M627.5,323c-25,0-35.3-7.2-35.3-19.7c0-8.7,4.8-13.4,12.8-15.6V286c-4.5-2.2-7.2-5.8-7.2-11.2c0-8.1,5.8-12,13.8-14v-0.6
			c-9.5-4.5-15.1-13.4-15.1-24.6c0-16.3,12-27.7,30.2-27.7c5.8,0,10.9,1.1,15.2,3.1v-1.4c0-6.2,2.6-10.7,9.3-10.7h12v10.9h-15.2v5.1
			c5.8,5,9.2,12.1,9.2,20.7c0,16.3-12,27.7-30.3,27.7c-2.6,0-5.4-0.3-7.8-0.8c-5.3,1.4-10.6,4-10.6,9c0,4.8,5,6.1,12.3,6.1H638
			c19.9,0,28.5,8.1,28.5,21.3C666.4,315.3,653.4,323,627.5,323z M638.1,289.2h-26.7c-5.1,2.3-7.5,5.9-7.5,10.9
			c0,7,4.8,12.8,17.4,12.8h11.5c13.8,0,21.9-4.4,21.9-13.1C654.8,293.4,650.6,289.2,638.1,289.2z M644.2,237.7v-4.4
			c0-10.6-6.7-15.6-17.3-15.6s-17.3,5-17.3,15.6v4.4c0,10.6,6.7,15.6,17.3,15.6S644.2,248.3,644.2,237.7z"/>
		<path d="M674,249.9c0-25.5,14.3-42,36.1-42c21.5,0,34.7,16.5,34.7,39.2v5.9h-57.7v3.7c0,13.8,8.9,24.3,23.8,24.3
			c10.1,0,17.9-5,22.1-13.8l8.9,6.4c-5.1,10.9-16.6,18.3-31.7,18.3C688.3,291.9,674,275.4,674,249.9z M687.1,242.6v1.1h44.3v-1.7
			c0-14.2-8.6-23.6-21.3-23.6C696.6,218.3,687.1,228.6,687.1,242.6z"/>
		<path d="M769.7,220.6h-13.1v-10.9h13.1v-16.2c0-11,5.8-18.7,17.6-18.7h12.1v10.9h-17.3v23.9h17.3v10.9h-17.3V290h-12.4V220.6z"/>
		<path d="M809.2,249.9c0-25.5,14.8-42,36.2-42c21.5,0,36.2,16.5,36.2,42c0,25.5-14.8,42-36.2,42
			C823.9,291.9,809.2,275.4,809.2,249.9z M868.3,255.6v-11.5c0-17-9.5-25.2-22.9-25.2c-13.4,0-22.9,8.2-22.9,25.2v11.5
			c0,17,9.5,25.2,22.9,25.2C858.8,280.8,868.3,272.6,868.3,255.6z"/>
		<path d="M902.1,290v-80.2h12.4v13.1h0.6c3.9-9,10.7-14.9,22.7-14.9c16.5,0,26.9,11.2,26.9,30.6V290h-12.4v-49.3
			c0-14.3-6.2-21.6-18.2-21.6c-10,0-19.6,5-19.6,15.2V290H902.1z"/>
		<path d="M1008.2,290c-8.6,0-13.2-5.4-13.2-13.2v-56.1h-13.2v-10.9h7.5c5.3,0,7-1.9,7-7.3v-14.9h11.2v22.2h17.6v10.9h-17.6v58.5
			h16.3V290H1008.2z"/>
		<path d="M1037.4,276.2l8.9-7.2c6.2,7.8,13.7,12.3,23.8,12.3c10.6,0,16.8-4.8,16.8-13.1c0-6.2-3.4-11-14-12.6l-6.4-0.9
			c-14.8-2.2-25.8-8.2-25.8-23.2c0-15.9,12.3-23.6,28.6-23.6c12.9,0,21.5,4.8,28,12.9l-8.2,7.5c-3.6-5-10.4-9.8-20.7-9.8
			c-10.3,0-15.7,4.8-15.7,12.4c0,7.8,5.4,10.9,15.4,12.4l6.2,0.9c17.7,2.6,24.6,10.4,24.6,22.5c0,15.5-11.4,25-29.7,25
			C1054.4,291.9,1044.6,285.6,1037.4,276.2z"/>
	</g>
</g>
</svg>
